<svg width="145" height="136" viewBox="0 0 145 136" fill="none" xmlns="http://www.w3.org/2000/svg">
<g id="Books">
<g id="Group">
<path id="Vector" d="M40.7534 110.59C40.503 111.902 39.3932 112.911 38.1369 112.956C36.3504 113.024 33.3796 112.953 29.0765 112.62C25.6713 112.325 22.9496 111.782 21.2643 111.255C20.0946 110.911 19.4326 109.766 19.6018 108.495C19.6018 108.495 23.0378 83.44 24.9204 71.076C26.2527 62.3002 31.7738 35.7419 31.7738 35.7419C32.0003 34.491 32.9715 33.5038 34.1945 33.3764C36.0862 33.2055 39.0717 33.0717 42.9018 33.4471C46.732 33.8225 49.5776 34.5499 51.3774 35.1172C52.4898 35.441 53.1279 36.6478 52.9254 37.8371C52.9254 37.8371 49.2283 64.9011 47.7427 73.9029C46.1373 83.2125 40.7534 110.59 40.7534 110.59Z" fill="#4092B5"/>
<path id="Vector_2" d="M31.161 106.558C34.8183 106.94 38.1094 105.262 38.5119 102.81C38.9144 100.358 36.2759 98.0599 32.6186 97.6777C28.9613 97.2955 25.6702 98.9736 25.2677 101.426C24.8651 103.878 27.5037 106.176 31.161 106.558Z" fill="#82D0E4"/>
<g id="Group_2">
<path id="Vector_3" d="M33.8592 42.1886C31.6164 57.537 29.3736 72.8853 27.1308 88.2337L33.8592 42.1886Z" fill="#FFA27A"/>
<g id="Group_3">
<path id="Vector_4" d="M33.5343 42.1811C32.8348 45.1374 32.4383 48.1321 31.986 51.1068C31.5337 54.0816 31.0813 57.0563 30.6053 60.0923C29.7007 66.0418 28.7723 72.0526 27.8118 77.9822C27.2494 81.4055 26.7429 84.8488 26.1805 88.2721C25.9856 89.5964 27.9074 89.724 28.1259 88.3385C29.7676 76.3797 31.4093 64.4209 33.0272 52.5234C33.51 49.1413 34.0403 45.6369 34.2759 42.2364C34.3538 41.7067 33.6681 41.6713 33.5343 42.1811Z" fill="#82D0E4"/>
</g>
</g>
<g id="Group_4">
<path id="Vector_5" d="M47.2566 44.3501C44.9728 59.6637 42.3637 74.9998 39.5318 90.256L47.2566 44.3501Z" fill="#FFA27A"/>
<g id="Group_5">
<path id="Vector_6" d="M47.1408 44.285C46.6217 45.6304 46.4134 47.1565 46.1409 48.5204C45.8211 50.0067 45.6129 51.5328 45.3489 53.039C44.8208 56.0514 44.3485 59.0837 43.8441 62.035C42.7881 68.0597 41.7321 74.0845 40.6439 80.0282C40.0301 83.4274 39.3605 86.8067 38.7466 90.2059C38.5127 91.3054 40.1269 91.3957 40.3608 90.2963C42.5843 78.2866 44.6728 66.2982 46.4033 54.2514C46.6587 52.6029 46.9142 50.9545 47.114 49.2861C47.3694 47.6377 47.6721 45.867 47.5224 44.2824C47.4581 44.1202 47.2116 44.1016 47.1408 44.285Z" fill="#82D0E4"/>
</g>
</g>
</g>
<g id="Group_6">
<path id="Vector_7" d="M117.216 109.295C117.288 110.131 116.771 111.021 115.989 111.299C114.62 111.837 112.31 112.545 109.093 113.09C106.072 113.617 104.085 113.658 102.904 113.562C102.096 113.494 101.456 112.855 101.384 112.019C101.384 112.019 97.649 78.8611 96.6649 67.7158C95.6117 55.94 93.3563 20.5699 93.3563 20.5699C93.3026 19.671 93.8789 18.7958 94.7206 18.5327C95.9146 18.1548 97.7758 17.6738 100.778 17.21C104.055 16.6796 106.216 16.4789 107.513 16.3995C108.417 16.3566 109.116 17.0107 109.229 17.9246C109.229 17.9246 112.119 47.4633 114.256 65.5066C116.735 86.4968 117.465 112.559 117.216 109.295Z" fill="#F3B953"/>
<g id="Group_7">
<path id="Vector_8" d="M110.258 92.5684C110.687 91.9879 110.937 91.1565 111.149 90.453C111.283 90.0053 111.358 89.5428 111.177 89.0853C110.996 88.6278 110.678 88.4114 110.265 88.5147C109.989 88.5836 108.672 89.1494 108.672 89.1494C108.455 89.2331 108.338 89.4102 108.261 89.666C108.165 89.9858 108.247 90.3498 108.446 90.5367C108.605 90.645 108.783 90.6892 108.92 90.6548L110.022 90.1726C109.953 91.4615 109.229 92.1749 108.676 92.1061C108.004 92.0077 107.425 91.1764 107.122 90.2761C106.857 89.248 106.885 87.8803 107.312 86.8866C107.525 86.3897 107.837 85.9863 108.172 85.9321C108.388 85.8485 108.607 85.9715 108.786 86.2223C109.025 86.488 109.301 86.4191 109.477 86.2567C109.751 85.9812 109.865 85.3909 109.526 85.0318C109.108 84.5153 108.593 84.3185 108.061 84.3923C107.47 84.4514 106.881 84.9237 106.571 85.5338C105.89 86.7391 105.61 88.7315 105.939 90.3942C106.228 91.9783 107.283 93.1343 108.429 93.3507C108.488 93.3655 108.548 93.3802 108.666 93.4097C109.239 93.4146 109.829 93.1489 110.258 92.5684Z" fill="white"/>
<path id="Vector_9" d="M112.696 104.305L112.614 103.941C112.451 103.214 112.307 102.424 112.105 101.824C111.577 99.7713 110.915 98.1652 110.038 96.849C109.899 96.6771 109.681 96.5543 109.466 96.6378C109.25 96.7213 109.074 96.8834 109.017 97.0749C108.938 97.1241 108.9 97.2518 108.881 97.3156C108.272 99.9778 108.156 102.694 108.434 105.371C108.435 105.577 108.575 105.749 108.752 105.793C108.811 105.808 108.87 105.823 108.929 105.837C109.048 105.867 109.264 105.783 109.361 105.67C109.537 105.508 109.594 105.317 109.593 105.11C109.489 104.398 109.463 103.637 109.496 102.89C110.046 102.753 110.577 102.679 111.088 102.669C111.21 103.111 111.313 103.617 111.415 104.123C111.436 104.265 111.516 104.423 111.537 104.565C111.597 104.786 111.737 104.958 111.914 105.002C112.092 105.046 112.367 104.978 112.483 104.801C112.699 104.717 112.757 104.526 112.696 104.305ZM109.877 98.8676C110.218 99.6388 110.579 100.552 110.863 101.515C110.41 101.54 109.998 101.643 109.605 101.682C109.617 100.793 109.708 99.8549 109.877 98.8676Z" fill="white"/>
<path id="Vector_10" d="M106.867 80.9881C107.792 80.8751 108.255 79.7546 108.428 79.1797C108.756 78.3 108.946 77.4548 108.978 76.5015C109.011 75.7545 108.926 74.9781 108.723 74.1722C108.538 73.3024 108.218 72.6734 107.762 72.2853C107.306 71.8971 106.714 71.7497 106.104 71.8726C105.357 72.0299 104.692 72.5508 104.244 73.1946C104.087 73.2929 104.029 73.4845 103.972 73.6762C103.689 75.2536 103.762 76.9195 104.25 78.8949C104.434 79.7647 104.833 80.3445 105.289 80.7327C105.547 80.9342 105.843 81.0079 106.158 81.0177C106.473 81.0275 106.67 81.0078 106.867 80.9881ZM106.127 79.6368C105.81 79.4206 105.649 78.8998 105.527 78.4575C105.12 76.8457 105.03 75.4501 105.217 74.1921C105.391 73.8235 105.743 73.4992 106.175 73.3321C106.391 73.2485 106.666 73.1797 106.924 73.3811C107.241 73.5973 107.383 74.1821 107.505 74.6244C107.608 75.1305 107.691 75.7006 107.715 76.2559C107.701 76.9389 107.628 77.6072 107.436 78.2461C107.34 78.5655 107.244 78.8849 107.089 79.1896L107.07 79.2535C107.031 79.3812 106.895 79.622 106.817 79.6712C106.739 79.7203 106.62 79.6909 106.561 79.6761C106.502 79.6614 106.502 79.6614 106.443 79.6466C106.383 79.6319 106.246 79.6663 106.186 79.6516L106.127 79.6368Z" fill="white"/>
<path id="Vector_11" d="M104.987 68.3031C105.046 68.3178 105.106 68.3326 105.165 68.3474C105.343 68.3917 105.501 68.2932 105.658 68.1946C105.835 68.032 105.893 67.8399 105.91 67.5689L105.443 63.598C105.501 63.4058 105.54 63.2777 105.519 63.1348L107.412 60.0259C107.548 59.7845 107.566 59.5135 107.486 59.3559C107.365 59.1194 107.206 59.011 106.949 59.016C106.751 59.0357 106.594 59.1342 106.477 59.3116L104.641 62.2284C103.785 61.4648 102.869 60.6864 101.914 60.0361C101.755 59.9277 101.517 59.8687 101.281 60.0165C101.064 60.1002 100.928 60.3417 100.851 60.5979C100.852 60.8048 100.913 61.0265 101.073 61.1349C102.127 61.8787 103.142 62.7507 104.099 63.6079L104.608 67.8646C104.669 68.0863 104.808 68.2587 104.987 68.3031Z" fill="white"/>
</g>
<g id="Group_8">
<path id="Vector_12" d="M101.712 37.1849C102.856 36.9876 103.939 36.7756 105.043 36.4996C105.654 36.3763 106.239 35.4902 105.918 34.8604C104.557 32.3902 103.058 29.9545 101.697 27.4844C101.336 26.7758 100.331 26.9386 100.121 27.8491C99.7983 29.557 99.3381 31.2995 98.7784 32.9484C98.5474 33.7163 98.2379 34.5334 97.9476 35.2865C97.6574 36.0396 97.2293 36.8272 97.3142 37.6048C97.3366 37.9542 97.7518 38.0574 98.0068 37.8457C98.0854 37.7965 98.1832 37.6832 98.2618 37.634C98.3211 37.6487 98.3211 37.6487 98.3804 37.6635C99.4467 37.7222 100.628 37.3969 101.712 37.1849Z" fill="white"/>
<path id="Vector_13" d="M104.666 37.846C104.059 37.9068 98.586 38.9436 99.1199 39.9936C99.4895 40.7205 100.722 40.5333 101.45 40.5028C102.582 40.4318 103.795 40.3102 104.925 40.0271C106.258 39.7237 105.959 37.6739 104.666 37.846Z" fill="white"/>
<path id="Vector_14" d="M103.827 41.657C103.645 41.4032 103.243 41.2341 102.944 41.3685C102.464 41.4581 102.065 41.707 101.808 42.1301C101.552 42.5532 101.675 43.0011 102.077 43.1703C102.198 43.2001 102.298 43.2947 102.438 43.2598C102.499 43.2747 102.499 43.2747 102.499 43.2747C102.559 43.2897 102.679 43.3195 102.739 43.3344C103.18 43.3742 103.6 43.2696 103.917 42.8614C104.094 42.4881 104.05 41.9905 103.827 41.657Z" fill="white"/>
</g>
</g>
<g id="Group_9">
<path id="Vector_15" d="M69.5903 109.546C69.6005 110.944 68.5803 112.227 67.274 112.527C65.908 112.817 63.9624 113.204 61.6992 113.336C59.3026 113.51 57.4671 113.384 56.1375 113.215C54.8079 113.046 53.864 111.948 53.8676 110.486C53.8676 110.486 53.4605 82.0174 53.4536 72.5064C53.5149 61.8105 54.1771 29.8073 54.1771 29.8073C54.1806 28.3449 55.2009 27.0626 56.5532 26.8365C58.0526 26.5035 60.1041 26.2018 62.2477 26.0494C64.0049 25.9615 66.0336 26.0548 67.5564 26.1914C68.8997 26.2963 69.8897 27.4691 69.8861 28.9315C69.8861 28.9315 70.5899 60.6446 70.5424 71.2765C70.5493 80.7875 69.5903 109.546 69.5903 109.546Z" fill="#FFA27A"/>
<path id="Vector_16" d="M68.1712 105.513C68.1712 105.513 66.1563 106.516 62.7572 106.803C59.4961 107.047 57.4463 106.148 57.4463 106.148C56.6001 106.204 55.8484 105.531 55.8619 104.586L55.8931 96.1969C55.8924 95.3168 56.4863 94.9464 57.3943 94.9017C57.3943 94.9017 59.2963 95.301 62.6193 95.068C66.066 94.8566 68.0574 94.256 68.0574 94.256C68.9036 94.2005 69.7406 94.4818 69.7413 95.362L69.7102 103.751C69.7585 104.707 69.0792 105.469 68.1712 105.513Z" fill="#F9EFE8"/>
<g id="Group_10">
<path id="Vector_17" d="M57.1982 29.8414C56.9071 30.9174 56.9076 32.0452 56.7915 33.1523C56.72 34.3337 56.7068 35.5254 56.7073 36.6532C56.6226 39.0262 56.5961 41.4096 56.628 43.8034C56.5889 48.5063 56.6081 53.2196 56.6136 57.9968C56.6035 58.3267 56.8849 58.7083 57.2348 58.7705C57.3514 58.7912 57.4817 58.748 57.6703 58.7151C58.003 58.5752 58.2018 58.2125 58.2256 57.8187C58.0178 53.1383 57.9403 48.4146 57.9211 43.7014C57.9338 41.3819 57.8882 39.052 57.8426 36.7221C57.8558 35.5304 57.8553 34.4026 57.8102 33.2005C57.8097 32.0727 57.8093 30.9449 57.5618 29.8396C57.428 29.6168 57.2393 29.6497 57.1982 29.8414Z" fill="#F9EFE8"/>
</g>
<g id="Group_11">
<path id="Vector_18" d="M60.8822 29.4405C60.584 29.9846 60.6084 30.7187 60.5434 31.3042C60.4957 32.0918 60.448 32.8793 60.4586 33.6773C60.4489 35.135 60.3673 36.6463 60.3576 38.104C60.2662 41.073 60.2468 43.9885 60.2137 46.9678C60.1807 49.9472 60.1612 52.8626 60.0698 55.8316C60.0632 56.4275 59.9126 57.1305 60.297 57.5967C60.5784 57.9784 61.045 58.0612 61.4051 57.7935C61.9675 57.429 61.8094 56.4721 61.1988 56.4964C61.0684 56.5396 60.9244 56.6467 60.8833 56.8384L60.8696 56.9023C60.8148 57.158 61.0207 57.3272 61.2813 57.2408C61.2813 57.2408 61.3397 57.2512 61.3534 57.1872C61.2368 57.1665 61.0755 57.0716 60.9588 57.0509C60.9862 56.923 61.0136 56.7952 61.041 56.6674C61.2297 56.6346 61.4183 56.6017 61.5933 56.6328L61.535 56.6224C61.6242 56.771 61.7272 56.8556 61.8164 57.0041C61.8063 57.334 61.8063 57.334 61.8164 57.0041C61.8301 56.9402 61.7718 56.9299 61.7855 56.8659C61.782 56.6 61.7064 56.3875 61.7611 56.1319C61.7678 55.536 61.7161 54.9298 61.7227 54.3339C61.6776 53.1318 61.7045 51.8762 61.7314 50.6205C61.6996 48.2267 61.7397 45.7793 61.7079 43.3855C61.676 40.9916 61.7162 38.5443 61.626 36.1401C61.5809 34.938 61.5804 33.8101 61.5353 32.608C61.542 32.0122 61.4902 31.4059 61.4248 30.8636C61.4177 30.3317 61.4107 29.7997 61.1429 29.3541C61.04 29.2695 60.9096 29.3127 60.8822 29.4405Z" fill="#F9EFE8"/>
</g>
<g id="Group_12">
<path id="Vector_19" d="M64.3147 29.8555C64.2057 30.3664 64.0522 30.803 64.0459 31.3985C63.995 31.9197 64.0024 32.4513 63.9379 33.0364C63.8808 34.1532 63.8237 35.2699 63.8247 36.397C63.7823 38.5769 63.7398 40.7569 63.6256 42.9903C63.4689 47.4037 63.4149 51.9017 62.9538 56.3271C62.8286 57.7631 64.7443 57.8397 64.8114 56.3933C64.8653 51.8953 65.1519 47.4388 65.1923 43.0046C65.1902 40.7504 65.2463 38.5066 65.1724 36.3059C65.1578 35.2427 65.1431 34.1795 65.0121 33.0955C64.9602 32.4896 64.8947 31.9476 64.8429 31.3418C64.7774 30.7998 64.6265 30.3751 64.4892 29.8866C64.5882 29.7054 64.3419 29.7278 64.3147 29.8555Z" fill="#F9EFE8"/>
</g>
<g id="Group_13">
<path id="Vector_20" d="M57.0522 62.2381C58.2393 62.7212 59.7145 62.4863 61.0503 62.2971C62.4483 62.1187 63.8613 61.8731 65.2417 61.4824C66.4053 61.1939 65.8422 59.3529 64.7409 59.6521C63.5 59.997 62.1969 60.3313 60.9235 60.5311C59.7124 60.7416 58.4212 60.7291 57.2279 61.152C56.7944 61.3566 56.6457 62.0287 57.0522 62.2381Z" fill="#F9EFE8"/>
</g>
</g>
<g id="Group_14">
<path id="Vector_21" d="M133.827 110.881C133.801 111.58 133.325 112.25 132.658 112.423C131.604 112.733 128.976 113.014 126.095 113.269C123.099 113.481 121.411 113.408 120.421 113.246C119.742 113.13 119.324 112.547 119.293 111.826C119.293 111.826 119.054 84.0853 119.133 74.8277C119.208 64.1503 119.843 31.9199 119.843 31.9199C119.812 31.1991 120.371 30.4893 121.095 30.3382C122.263 30.0717 124.237 29.6145 126.814 29.4565C128.858 29.3092 131.111 29.4538 132.52 29.5622C133.224 29.6165 133.757 30.2436 133.731 30.9427C133.731 30.9427 134.321 62.2905 134.545 72.7266C134.896 90.0167 133.827 110.881 133.827 110.881Z" fill="#005E32"/>
<g id="Group_15">
<path id="Vector_22" d="M120.322 35.8717C121.395 36.0547 122.542 35.8999 123.662 35.8083C124.809 35.6535 126.015 35.5206 127.135 35.429C128.256 35.3373 128.186 33.4102 127.012 33.6282C125.839 33.8461 124.692 34.0009 123.518 34.2189C122.43 34.3956 121.283 34.5504 120.263 35.0455C119.897 35.2737 119.945 35.8035 120.322 35.8717Z" fill="#F9EFE8"/>
</g>
<g id="Group_16">
<path id="Vector_23" d="M120.674 39.5511C121.547 39.8783 122.738 39.4503 123.681 39.2933C124.909 39.0977 126.222 38.861 127.444 38.5177C128.355 38.276 128.36 36.8212 127.359 36.9564C126.274 37.1326 125.136 37.4347 124.056 37.7587C123.516 37.9207 123.003 38.0197 122.463 38.1817C122.008 38.3025 121.415 38.5904 121.012 38.5854C120.525 38.6215 120.208 39.3766 120.674 39.5511Z" fill="#F9EFE8"/>
</g>
<g id="Group_17">
<path id="Vector_24" d="M121.856 43.3956C122.622 43.8294 123.627 43.6939 124.462 43.6409C125.44 43.5687 126.45 43.5816 127.46 43.5945C128.646 43.6733 129.033 41.6219 127.821 41.6063C126.725 41.6347 125.572 41.6411 124.509 41.7547C123.562 41.9122 122.472 42.0891 121.75 42.843C121.585 43.0741 121.708 43.2665 121.856 43.3956Z" fill="#F9EFE8"/>
</g>
<g id="Group_18">
<path id="Vector_25" d="M123.638 109.472C123.909 109.793 124.005 110.048 124.472 110.223C124.881 110.376 125.374 110.488 125.836 110.515C126.791 110.654 127.683 110.623 128.659 110.55C130.612 110.406 132.549 109.817 134.359 108.888C135.574 108.248 134.925 106.251 133.71 106.892C132.129 107.76 130.394 108.352 128.675 108.584C127.873 108.722 126.982 108.753 126.175 108.742C125.713 108.715 125.31 108.71 124.822 108.746C124.392 108.805 124.137 108.928 123.739 109.071C123.686 109.197 123.607 109.387 123.638 109.472Z" fill="#F9EFE8"/>
</g>
<g id="Group_19">
<path id="Vector_26" d="M128.903 103.16C128.862 103.575 128.768 104.114 129.119 104.389C129.266 104.516 129.465 104.519 129.664 104.521C129.889 104.462 129.999 104.359 130.077 104.173C130.291 103.823 130.076 103.383 130.008 103.07C129.913 102.819 129.651 102.65 129.426 102.709C129.196 102.623 128.893 102.868 128.903 103.16Z" fill="#F9EFE8"/>
</g>
<g id="Group_20">
<path id="Vector_27" d="M128.622 97.8499L128.654 97.934C128.622 97.8499 128.648 97.7876 128.617 97.7035C128.596 97.9124 128.633 98.1429 128.696 98.311C128.759 98.4791 128.849 98.5848 128.965 98.6281C129.139 98.6931 129.339 98.6957 129.507 98.6142C129.786 98.4296 129.969 97.9928 129.759 97.6974C129.727 97.6133 129.638 97.5076 129.522 97.4642C129.432 97.3585 129.316 97.3152 129.116 97.3126C129.232 97.356 129.322 97.4617 129.38 97.4833C129.322 97.4617 129.322 97.4617 129.29 97.3776C129.143 97.2502 128.911 97.1636 128.716 97.3075C128.632 97.3482 128.527 97.5978 128.622 97.8499Z" fill="#F9EFE8"/>
</g>
<g id="Group_21">
<path id="Vector_28" d="M124.965 48.7334C124.592 49.3065 124.474 49.9037 124.47 50.5437C124.471 51.3284 125.737 51.3044 125.818 50.4796C125.88 49.861 125.827 49.1995 125.499 48.7201C125.411 48.6156 125.099 48.5701 124.965 48.7334Z" fill="#F9EFE8"/>
</g>
<g id="Group_22">
<path id="Vector_29" d="M125.847 55.4012C125.738 55.5029 125.687 55.6262 125.635 55.7494C125.718 55.7093 125.77 55.5861 125.853 55.5459C125.546 55.6449 125.396 56.1594 125.324 56.4891C125.278 56.7571 125.372 57.0064 125.602 57.0924C125.831 57.1784 126.112 57.1411 126.273 56.916C126.459 56.6294 126.537 56.4444 126.469 56.1334C126.457 55.8439 126.337 55.6562 126.051 55.5487C126.165 55.5917 126.197 55.6748 126.311 55.7178C126.223 55.6132 126.134 55.5086 126.019 55.4656C125.962 55.4441 125.905 55.4227 125.847 55.4012Z" fill="#F9EFE8"/>
</g>
</g>
<g id="Group_23">
<path id="Vector_30" d="M92.4993 110.202C92.4997 111.068 91.8868 111.891 91.0984 112.085C89.5215 112.472 86.5891 113.086 82.8587 113.359C79.2482 113.653 76.6749 113.465 75.2822 113.285C74.549 113.222 74.0138 112.529 74.0133 111.663L73.9428 26.124C73.9423 25.2587 74.4953 24.4245 75.2837 24.231C76.9343 23.7904 79.8668 23.1768 83.1637 22.8938C85.7598 22.6866 89.2461 22.9696 91.0723 23.1589C91.8654 23.2325 92.4007 23.926 92.4011 24.7913L92.4993 110.202Z" fill="#F46041"/>
<path id="Vector_31" d="M86.8461 37.8755L76.8595 38.4494C76.0094 38.5054 75.3928 37.7848 75.3923 36.8991L75.3805 32.8097C75.3943 31.8584 76.0911 31.0262 76.927 31.0358L86.9135 30.462C87.7637 30.4059 88.3802 31.1266 88.3807 32.0123L88.3926 36.1017C88.4409 37.0638 87.6962 37.8195 86.8461 37.8755Z" fill="white"/>
<g id="Group_24">
<path id="Vector_32" d="M76.9869 44.776C78.5633 44.9782 80.2111 44.5616 81.7994 44.4152C83.4501 44.2796 85.0711 44.2791 86.6922 44.2786C88.1734 44.3241 88.4292 41.9841 86.8855 41.9278C85.202 41.9175 83.5662 41.9856 81.8381 42.178C80.2498 42.3244 78.4265 42.36 76.8917 43.1468C76.2879 43.5333 76.2374 44.6465 76.9869 44.776Z" fill="white"/>
</g>
<g id="Group_25">
<path id="Vector_33" d="M77.3491 48.3882C77.8067 48.9571 78.8649 48.8595 79.5485 48.6973C80.4968 48.5107 81.2428 48.3593 82.0988 48.2968C83.8109 48.1719 85.4458 48.1037 87.1132 48.1812C88.531 48.2155 88.8792 45.7554 87.5239 45.7317C85.7791 45.711 83.9422 45.8144 82.2153 46.0067C81.3443 46.1366 80.5508 46.2098 79.665 46.4072C78.8565 46.5478 77.8458 46.7236 77.2453 47.3902C76.9688 47.7626 77.0044 48.1887 77.3491 48.3882Z" fill="white"/>
</g>
<g id="Group_26">
<path id="Vector_34" d="M78.8178 106.17C78.6246 106.474 78.4314 106.777 78.3591 107.101C78.2867 107.426 78.3205 107.835 78.369 108.18C78.635 109.234 80.2296 108.832 80.1737 107.679C80.1568 107.474 80.1253 107.334 80.1687 107.14C80.1832 107.075 80.1373 107 80.1518 106.935C80.1518 106.935 80.1493 106.666 80.1203 106.795C80.1468 106.396 80.0984 106.051 79.7504 105.925C79.4169 105.734 79.011 105.867 78.8178 106.17Z" fill="white"/>
</g>
<g id="Group_27">
<path id="Vector_35" d="M82.8946 105.984C82.5701 106.872 82.718 108.178 83.268 108.811C83.7114 109.358 84.7652 108.862 84.8645 108.138C84.9807 107.618 84.8257 107.188 84.6706 106.757C84.5009 106.391 84.3458 105.96 84.026 105.704C83.7061 105.447 83.0714 105.475 82.8946 105.984Z" fill="white"/>
</g>
<g id="Group_28">
<path id="Vector_36" d="M87.685 105.979C87.2335 106.308 87.0417 106.883 87.0465 107.424C87.0514 107.964 87.2675 108.406 87.5588 108.793C87.9107 109.19 88.6826 109.118 89.0565 108.574C89.4303 108.03 89.4546 107.359 89.0419 106.952C88.9351 106.866 89.088 107.027 89.088 107.027L89.0419 106.952L88.9958 106.877C88.9036 106.726 89.0274 107.017 89.0419 106.952C89.0565 106.887 88.9958 106.877 89.0104 106.812C88.9788 106.671 89.025 106.747 89.0104 106.812C89.0104 106.812 89.0419 106.952 89.0104 106.812C89.025 106.747 88.9303 106.325 88.9789 106.671C88.9303 106.325 88.8526 106.11 88.5637 105.993C88.2433 105.737 87.9253 105.75 87.685 105.979Z" fill="white"/>
</g>
</g>
</g>
</svg>
