<svg width="100" height="100" viewBox="0 0 100 100" fill="none" xmlns="http://www.w3.org/2000/svg">
<g id="Books">
<g id="Group">
<path id="Vector" d="M73.4607 82.799C73.4161 83.7656 72.8268 84.6124 71.9653 84.8032C70.44 85.1833 67.7639 85.6533 64.2539 85.9026C60.3489 86.1545 58.0271 86.0465 56.7743 85.8903C55.9505 85.8135 55.3312 85.0363 55.318 84.0495C55.318 84.0495 54.8754 60.1824 54.9332 52.2048C55.0322 43.6101 56.1768 17.841 56.1768 17.841C56.1636 16.8542 56.8925 15.9859 57.7539 15.7952C59.395 15.4554 62.2107 14.9639 65.2203 14.8207C68.2537 14.6157 71.1679 14.7198 72.8734 14.8936C73.779 14.9287 74.3983 15.7059 74.4115 16.6927C74.4115 16.6927 74.5333 42.4123 74.4343 51.007C74.2607 58.9442 73.4607 82.799 73.4607 82.799Z" fill="#F6CF3C"/>
</g>
<g id="Group_2">
<g id="Group_3">
<g id="Group_4">
<g id="Group_5">
<path id="Vector_2" d="M40.1294 21.1468C40.1448 20.0982 40.8166 19.207 41.6745 19.0127C42.892 18.7324 45.0342 18.4216 48.5037 18.22C51.5803 18.0226 53.7509 18.1432 55.1116 18.3342C55.9884 18.4276 56.5769 19.2642 56.5614 20.3128C56.5614 20.3128 56.078 42.9115 55.8737 50.4997C55.6162 58.5613 54.6807 82.8301 54.6807 82.8301C54.6652 83.8787 53.9694 84.8319 53.054 85.0062C51.3046 85.3127 48.5249 85.7537 46.3972 85.8587C44.466 85.9616 41.567 85.8694 39.7894 85.7445C38.8885 85.713 38.2425 84.8565 38.282 83.746C38.282 83.746 38.6599 61.2512 38.9037 52.5524C39.1973 42.044 40.1294 21.1468 40.1294 21.1468Z" fill="#179AAA"/>
<path id="Vector_3" d="M41.6363 76.3313L42.7744 39.2223C42.7847 38.5222 43.256 37.9819 43.8468 37.9756L52.599 37.4907C53.1322 37.4644 53.588 37.9741 53.5777 38.6742L52.4593 75.2272C52.449 75.9272 51.9777 76.4675 51.3869 76.4739L42.1592 77.005C41.9863 76.9451 41.6406 76.8253 41.6363 76.3313ZM41.3077 78.1876L52.4138 77.5334C52.947 77.5071 53.4423 76.9047 53.4862 76.2867L54.6407 37.2835C54.651 36.5835 54.2528 36.0937 53.662 36.1L42.8346 36.7101C42.3014 36.7364 41.806 37.3387 41.7622 37.9567L40.6026 77.3099C40.6069 77.804 40.8898 78.2538 41.3077 78.1876Z" fill="white"/>
</g>
</g>
</g>
<g id="Group_6">
<path id="Vector_4" d="M54.0682 22.5988C53.5815 22.2839 53.2387 21.9464 52.6778 21.8237C52.1168 21.7009 51.5907 21.663 51.005 21.6044C49.8932 21.5078 48.841 21.432 47.764 21.4202C45.5852 21.4608 43.2974 21.6087 41.1589 22.2448C40.3303 22.4649 40.4411 24.1026 41.3045 23.9673C42.3715 23.8302 43.4283 23.5442 44.4357 23.3863C45.5026 23.2492 46.5448 23.1761 47.5622 23.1671C48.5796 23.1581 49.6566 23.1699 50.7089 23.2457C51.1754 23.2628 51.6768 23.3648 52.1433 23.382C52.729 23.4406 53.2102 23.2449 53.7859 23.1546C54.1928 23.151 54.3413 22.7666 54.0682 22.5988Z" fill="white"/>
</g>
<g id="Group_7">
<path id="Vector_5" d="M52.2485 72.7713C51.8114 72.3283 51.201 72.3337 50.5906 72.3391C49.9207 72.3238 49.2507 72.3084 48.5211 72.2723C47.1812 72.2417 45.7569 72.2543 44.417 72.2236C43.5435 72.2101 43.5104 73.8701 44.4086 73.8196C45.7485 73.8503 47.0536 73.7962 48.3936 73.8268C49.0635 73.8422 49.674 73.8368 50.3687 73.7881C50.9195 73.7619 51.649 73.798 52.1449 73.3893C52.3383 73.2386 52.4025 72.8976 52.2485 72.7713Z" fill="white"/>
</g>
<g id="Group_8">
<path id="Vector_6" d="M51.4723 69.8182C51.2048 69.291 50.6555 69.3174 50.1903 69.3005C49.5222 69.2856 48.8887 69.3551 48.2206 69.3401C46.919 69.3947 45.6521 69.5336 44.3852 69.6726C43.6083 69.7646 43.5297 71.1847 44.3413 71.1771C45.6182 71.1864 46.895 71.1956 48.1619 71.0567C48.7954 70.9872 49.4041 70.9815 50.0376 70.912C50.5275 70.865 51.1015 70.7749 51.4428 70.2421C51.5516 70.1352 51.5417 69.987 51.4723 69.8182Z" fill="white"/>
</g>
<g id="Group_9">
<path id="Vector_7" d="M49.5049 67.5813C49.0111 67.122 48.3199 67.1706 47.6287 67.2193C46.9376 67.268 46.1427 67.0646 45.5406 67.5764C45.1803 67.8118 45.1953 68.4655 45.5015 68.7158C46.0793 69.1322 46.9037 68.9135 47.6195 68.8013C48.2514 68.7321 48.9771 68.7674 49.52 68.235C49.6532 68.0651 49.658 67.7064 49.5049 67.5813Z" fill="white"/>
</g>
</g>
<g id="Group_10">
<g id="Group_11">
<g id="Group_12">
<path id="Vector_8" d="M27.4335 83.4511C27.3718 84.6198 28.1636 85.5958 29.2079 85.7497C30.0806 85.8439 31.206 85.9561 32.46 85.9031C33.8524 85.8283 34.9348 85.7155 35.7073 85.5646C36.8373 85.3284 37.6906 84.2956 37.7523 83.127L40.6129 9.63574C40.6746 8.46711 39.8256 7.47111 38.7002 7.35892C37.942 7.3047 36.8738 7.21246 35.5387 7.3072C34.1463 7.38199 33.1212 7.51475 32.3487 7.66558C31.2187 7.9018 30.3081 8.91462 30.2799 10.1649L27.4335 83.4511Z" fill="#FFA27A"/>
</g>
</g>
<g id="Group_13">
<path id="Vector_9" d="M38.8894 13.1143C38.4191 12.5894 37.6077 12.5969 36.8804 12.5613C36.0937 12.505 35.307 12.4488 34.555 12.4769C32.9669 12.5764 31.2947 12.7189 29.7712 13.347C28.7522 13.7163 29.0895 15.2799 30.1432 14.9949C31.6519 14.5787 33.1013 14.1418 34.6301 14.0218C35.3227 13.973 36.0994 13.8811 36.8267 13.9168C37.4947 13.9317 38.1972 14.0311 38.8452 13.7498C38.9787 13.5792 38.9588 13.283 38.8894 13.1143Z" fill="#F27E5A"/>
</g>
<g id="Group_14">
<path id="Vector_10" d="M38.7782 16.2541C38.1619 15.7483 37.3127 15.6705 36.4635 15.5926C35.6143 15.5147 34.8248 15.4576 33.9508 15.4439C33.0769 15.4301 32.2378 15.5012 31.3987 15.5723C30.7632 15.6417 29.5069 15.5673 29.1503 16.3157C29.0513 16.5721 29.0367 16.7852 29.2256 16.9965C29.6733 17.589 30.7204 17.154 31.3807 17.0206C32.2197 16.9495 32.9992 16.8576 33.8135 16.8506C34.6278 16.8436 35.4422 16.8365 36.2914 16.9144C37.0213 16.9507 37.821 17.1568 38.5656 16.98C38.794 16.9142 38.9672 16.4654 38.7782 16.2541Z" fill="#F27E5A"/>
</g>
<g id="Group_15">
<path id="Vector_11" d="M35.345 21.2342C35.5308 19.735 33.484 19.8805 32.6408 20.5129C32.012 20.9352 31.578 21.7091 31.6849 22.4567C31.7577 23.1214 32.2205 23.6366 32.7808 23.9013C34.1012 24.4286 35.6708 23.1233 35.7737 21.6666C35.7787 21.313 35.7496 20.8765 35.4232 20.6927C35.1552 20.529 34.8726 20.5735 34.6337 20.8463C34.1803 21.3292 34.5211 22.1576 33.8923 22.5798C33.3464 22.9597 32.5573 22.2606 33.035 21.7151C33.4299 21.212 34.195 21.1211 34.5408 21.5959C34.877 21.9252 35.3156 21.6504 35.345 21.2342Z" fill="#F27E5A"/>
</g>
<g id="Group_16">
<path id="Vector_12" d="M34.7326 27.0348C34.7568 26.9725 34.7471 26.8277 34.7131 26.7452C34.6646 26.8699 34.6404 26.9322 34.5919 27.0569C34.6986 26.9524 34.7131 26.7452 34.6451 26.5803C34.6111 26.4978 34.5771 26.4154 34.5189 26.3952C34.5529 26.4777 34.6111 26.4978 34.6451 26.5803C34.6159 26.1459 34.0093 26.0068 33.6212 26.1554C33.233 26.304 32.8886 26.6799 32.8596 27.0941C32.7724 27.4882 32.8841 27.8804 33.185 28.1259C33.3694 28.3311 33.6023 28.4117 33.908 28.3053C34.2137 28.1989 34.4514 27.9275 34.4901 27.6581C34.6743 27.0147 33.8251 26.6502 33.4662 27.2332C33.4662 27.2332 33.4904 27.1709 33.5487 27.191C33.3595 27.3377 33.3595 27.3377 33.5487 27.191C33.6894 27.169 33.7476 27.1891 33.8883 27.1671C33.7719 27.1268 34.063 27.2275 33.9465 27.1872C34.0048 27.2074 33.9805 27.2697 33.9465 27.1872C33.9368 27.0424 33.9465 27.1872 33.9465 27.1872C33.9805 27.2697 33.9465 27.1872 33.9708 27.1249C33.995 27.0626 33.9465 27.1872 33.9708 27.1249C33.995 27.0626 33.9223 27.2495 33.9708 27.1249L33.9465 27.1872C33.9465 27.1872 33.9465 27.1872 33.9708 27.1249C33.9708 27.1249 33.9708 27.1249 33.9465 27.1872C33.9465 27.1872 33.9465 27.1872 33.9708 27.1249C33.8883 27.1671 33.9708 27.1249 33.9708 27.1249L34.0533 27.0827C33.9125 27.1047 34.194 27.0607 34.1115 27.1028C34.0533 27.0827 34.1697 27.123 34.1697 27.123C34.228 27.1431 34.3104 27.1009 34.3687 27.1211C34.3104 27.1009 34.228 27.1431 34.1697 27.123C34.2862 27.1633 34.1115 27.1028 34.228 27.1431C34.3444 27.1834 34.4609 27.2237 34.5676 27.1192C34.4512 27.0789 34.3687 27.1211 34.228 27.1431L34.2862 27.1633C34.4124 27.3483 34.718 27.2419 34.7326 27.0348Z" fill="#F27E5A"/>
</g>
<g id="Group_17">
<path id="Vector_13" d="M38.5874 77.8664C37.9412 77.7866 37.2805 77.9201 36.5849 77.9686C35.8892 78.0172 35.1339 78.0448 34.463 78.0292C32.9772 78.0204 31.5656 77.819 30.2283 77.4251C29.4279 77.2186 28.9677 78.5873 29.8277 78.8147C31.3092 79.1861 32.7804 79.4082 34.3507 79.3737C35.106 79.346 35.8016 79.2975 36.6064 79.1414C37.3268 79.0287 38.1317 78.8726 38.7721 78.4407C38.8216 78.3123 38.826 77.9497 38.5874 77.8664Z" fill="#F27E5A"/>
</g>
<g id="Group_18">
<path id="Vector_14" d="M38.8593 80.8399C38.6265 80.3974 37.8004 80.6168 37.37 80.6843C36.6526 80.7968 35.8512 80.9525 35.1339 81.065C33.5804 81.2487 32.0169 81.2844 30.5523 81.0651C29.5875 80.947 29.1381 82.4544 30.1029 82.5724C31.8298 82.8105 33.5367 82.7524 35.3424 82.4392C36.1438 82.2836 37.0046 82.1486 37.8208 81.7811C37.9049 81.738 39.0574 81.198 38.8593 80.8399Z" fill="#F27E5A"/>
</g>
</g>
</g>
</svg>
