<svg width="174" height="154" viewBox="0 0 174 154" fill="none" xmlns="http://www.w3.org/2000/svg">
<g id="Books">
<path id="Vector" d="M58.8886 51.9953C57.707 52.0034 56.5902 51.1055 56.3693 49.8865C56.0374 48.1313 55.6002 45.1062 55.3504 40.2437C55.0677 35.9076 55.2077 32.7747 55.3668 30.8766C55.4339 29.6771 56.3922 28.7435 57.6317 28.71C57.6317 28.71 83.974 28.3794 92.7351 28.3267C102.13 28.2874 130.283 28.5494 130.283 28.5494C131.523 28.5158 132.61 29.4999 132.801 30.805C133.185 33.2685 133.702 37.2093 133.851 40.2149C134.031 42.9876 133.94 47.1223 133.863 49.6426C133.824 50.9028 132.808 51.8618 131.626 51.8699C131.626 51.8699 105.485 52.3316 95.3402 52.4081C83.1216 52.3736 58.8886 51.9953 58.8886 51.9953Z" fill="#66BDC6"/>
<g id="Group">
<g id="Group_2">
<g id="Group_3">
<path id="Vector_2" d="M146.199 66.89C146.199 66.89 147.027 63.9309 146.726 59.4604C146.334 53.9157 145.145 51.9847 145.145 51.9847L41.9919 51.1001C41.9919 51.1001 41.2181 52.9963 41.6095 58.541C42.0009 64.0857 43.0456 66.0054 43.0456 66.0054L146.199 66.89Z" fill="#F46041"/>
</g>
</g>
<g id="Group_4">
<path id="Vector_3" d="M48.1019 53.9386C47.4886 54.6395 47.5183 55.7066 47.492 56.6544C47.4379 57.6863 47.4119 58.778 47.4417 59.8452C47.6129 61.9307 47.8962 64.2551 48.654 66.2995C49.1592 67.6625 51.0579 67.1184 50.6643 65.7065C50.1301 63.7081 49.4843 61.7587 49.2572 59.6977C49.1438 58.7391 49.0582 57.6964 49.0006 56.7134C48.9711 55.7901 49.1371 54.8532 48.7446 54.017C48.6324 53.7781 48.2414 53.8054 48.1019 53.9386Z" fill="white"/>
</g>
<g id="Group_5">
<path id="Vector_4" d="M52.2817 53.9493C51.6664 54.7959 51.6128 55.9747 51.5311 57.0935C51.4493 58.2124 51.3676 59.3312 51.4261 60.461C51.4286 61.6152 51.5714 62.7803 51.7142 63.9454C51.8003 64.8465 51.7759 66.518 52.7307 66.9671C53.0676 67.1086 53.32 67.0705 53.5721 66.8881C54.272 66.2211 53.708 64.879 53.5659 64.0025C53.3952 62.9218 53.2806 61.8165 53.222 60.6868C53.1635 59.5571 53.1331 58.4873 53.2149 57.3684C53.2687 56.3339 53.5189 55.2858 53.2362 54.2541C53.0389 53.8349 52.4774 53.6471 52.2817 53.9493Z" fill="white"/>
</g>
<g id="Group_6">
<path id="Vector_5" d="M59.1418 58.3221C57.1524 58.1668 57.4734 61.0167 58.3576 62.1631C58.9567 62.9962 59.9245 63.5958 60.9184 63.3822C61.742 63.2426 62.4504 62.5698 62.7038 61.8033C63.352 59.9901 61.584 57.8428 59.7086 57.7839C59.2255 57.7753 58.6575 57.8766 58.4599 58.3271C58.2905 58.6925 58.3772 59.1652 58.6904 59.3934C59.374 59.971 60.4524 59.5018 60.9948 60.3595C61.48 61.0963 60.6308 62.1949 59.9185 61.5569C59.2349 60.9794 59.1184 60.0093 59.6851 59.4711C60.0248 59.0316 59.5682 58.3553 59.1418 58.3221Z" fill="white"/>
</g>
<g id="Group_7">
<path id="Vector_6" d="M66.8903 58.9733C66.7475 58.9622 66.6335 59.0118 66.4907 59.0007C66.6335 59.0118 66.8049 59.0835 66.8907 59.1194C66.7475 58.9621 66.462 58.9399 66.2909 59.0144C66.1768 59.064 66.0915 59.1743 66.0345 59.1991C66.0915 59.1743 66.2055 59.1247 66.2339 59.0392C65.6632 59.141 65.5227 60.0071 65.6667 60.4568C65.868 61.0279 66.3258 61.4143 66.9256 61.5193C67.4397 61.5885 67.9816 61.4259 68.266 61.0095C68.5221 60.6786 68.6354 60.3366 68.5201 59.9476C68.4049 59.5586 68.0328 59.2082 67.6329 59.0894C66.7758 58.8766 66.3223 60.0985 67.1514 60.5429C67.1227 60.4822 67.0657 60.507 67.037 60.4463C67.2088 60.6643 67.2088 60.6643 67.037 60.4463C67.0366 60.3001 67.0362 60.1539 67.0358 60.0077C66.9791 60.1787 67.1495 59.8119 67.0928 59.9829C67.1211 59.8974 67.1499 59.9581 67.0928 59.9829C67.0358 60.0077 67.0358 60.0077 67.0928 59.9829C67.1499 59.9581 67.1499 59.9581 67.0928 59.9829C67.0928 59.9829 66.95 59.9718 67.0358 60.0077C67.1499 59.9581 67.0358 60.0077 66.9788 60.0325C66.893 59.9966 67.1215 60.0436 66.9788 60.0325C66.836 60.0214 67.1215 60.0436 66.9788 60.0325L67.0075 60.0932L66.9788 60.0325L67.0075 60.0932L66.9788 60.0325C66.9788 60.0325 67.0362 60.1539 66.9788 60.0325C66.95 59.9718 66.95 59.9718 66.9213 59.9111C66.9504 60.118 66.9209 59.7649 66.9496 59.8256C66.9213 59.9111 66.9493 59.6794 66.9493 59.6794C66.9776 59.5939 66.9202 59.4725 66.8915 59.4118C66.8631 59.4973 66.9206 59.6187 66.8922 59.7042C66.8919 59.558 66.8352 59.729 66.9206 59.6187C66.9772 59.4477 66.9768 59.3015 66.8907 59.1194C66.8911 59.2656 66.8915 59.4118 66.8919 59.558L66.9489 59.5332C67.3481 59.3596 67.1758 58.9954 66.8903 58.9733Z" fill="white"/>
</g>
<g id="Group_8">
<path id="Vector_7" d="M135.1 52.0328C134.989 52.9475 135.188 53.7996 135.274 54.7007C135.388 55.6617 135.446 56.6473 135.42 57.5974C135.453 59.5331 135.232 61.5068 134.844 63.4098C134.622 64.5179 136.334 64.9969 136.556 63.8889C136.973 61.9015 137.221 59.8433 137.132 57.7879C137.074 56.8024 136.931 55.7815 136.761 54.845C136.562 53.8486 136.364 52.8522 135.745 51.9674C135.604 51.6679 135.183 51.6353 135.1 52.0328Z" fill="white"/>
</g>
<g id="Group_9">
<path id="Vector_8" d="M139.153 51.5521C138.652 51.9161 138.932 52.9447 139.017 53.5554C139.214 54.5487 139.411 55.5421 139.552 56.5599C139.863 58.6552 139.95 60.7045 139.786 62.792C139.648 64.076 141.575 64.5987 141.713 63.3148C141.904 60.9993 141.817 58.6622 141.366 56.2684C141.169 55.1312 140.916 54.0185 140.412 52.9439C140.244 52.7295 139.599 51.2125 139.153 51.5521Z" fill="white"/>
</g>
</g>
<g id="Group_10">
<g id="Group_11">
<path id="Vector_9" d="M155.64 106.708L31.4221 105.723C31.4221 105.723 30.3723 101.137 30.0728 96.5208C29.7446 91.9911 30.1664 87.2825 30.1664 87.2825L154.384 88.2672C154.384 88.2672 155.75 92.1959 156.108 97.528C156.496 102.922 155.64 106.708 155.64 106.708Z" fill="#F27E5A"/>
<g id="Group_12">
<path id="Vector_10" d="M41.0779 91.4543C40.7261 96.156 40.6545 100.88 42.1239 105.579C42.435 106.67 44.5072 106.198 44.1402 105.131C42.7553 100.611 42.8832 96.0072 43.2354 91.4497C43.2605 90.3559 41.103 90.3605 41.0779 91.4543Z" fill="#BB4930"/>
</g>
</g>
<path id="Vector_11" d="M49.7411 97.3857L55.3217 92.0968C55.6937 91.7149 56.3806 91.7081 56.81 92.0332L63.2506 96.91C63.8803 97.3673 63.9663 98.2814 63.4511 98.7989L57.8705 104.088C57.4985 104.47 56.8115 104.476 56.3822 104.151L49.9416 99.2746C49.2833 98.7566 49.1973 97.8425 49.7411 97.3857Z" fill="#BB4930"/>
<g id="Group_13">
<path id="Vector_12" d="M119.805 90.155C120.761 90.7043 121.917 90.6453 122.987 90.6984C124.201 90.7627 125.387 90.9139 126.601 90.9782C128.972 91.1321 131.285 91.3112 133.627 91.4034C138.397 91.6242 143.139 91.7834 147.851 91.7323C148.891 91.7238 148.801 90.0532 147.76 90.0617C143.077 90.1744 138.365 90.0769 133.681 89.8926C131.397 89.7751 129.113 89.6577 126.771 89.5655C125.644 89.5376 124.487 89.4481 123.331 89.3585C122.203 89.3306 120.873 89.0197 119.833 89.4739C119.631 89.6365 119.603 90.0205 119.805 90.155Z" fill="#BB4930"/>
</g>
<g id="Group_14">
<path id="Vector_13" d="M120.369 95.9437C121.44 96.1454 122.539 96.4088 123.638 96.5235C124.795 96.6131 125.923 96.641 127.079 96.7305C129.422 96.8227 131.764 96.9148 134.106 97.007C138.762 97.1296 143.331 97.2158 148.015 97.2515C149.201 97.2541 149.11 95.2857 147.866 95.3084C143.327 95.2839 138.7 95.2229 134.102 95.075C131.847 95.0193 129.504 94.9272 127.249 94.8715C126.179 94.8184 125.051 94.7905 124.01 94.7991C122.796 94.7348 121.64 94.9425 120.425 95.0268C119.934 95.0184 119.82 95.812 120.369 95.9437Z" fill="#BB4930"/>
</g>
<g id="Group_15">
<path id="Vector_14" d="M120.825 100.551C121.839 101.075 122.938 101.19 124.037 101.305C125.223 101.456 126.438 101.52 127.595 101.61C129.909 101.789 132.252 101.881 134.595 101.973C139.31 102.07 143.966 102.044 148.651 101.782C149.865 101.698 149.775 99.729 148.531 99.7517C143.904 99.9882 139.277 100.076 134.649 100.015C132.393 99.9596 130.108 99.8423 127.852 99.7866C126.724 99.7588 125.567 99.6693 124.41 99.5797C123.252 99.4902 122.009 99.3642 120.91 99.6954C120.563 99.8469 120.478 100.405 120.825 100.551Z" fill="#BB4930"/>
</g>
<g id="Group_16">
<path id="Vector_15" d="M114.488 91.0668C114.327 94.4574 114.671 97.9161 114.986 101.315C115.101 102.708 117.176 102.667 117.033 101.358C116.717 97.9594 116.654 94.5225 116.198 91.1128C116 89.9726 114.542 90.0327 114.488 91.0668Z" fill="#BB4930"/>
</g>
</g>
<g id="Group_17">
<path id="Vector_16" d="M141.326 88.6367C141.326 88.6367 142.188 84.1267 141.667 76.5308C141.29 70.7169 139.819 66.2666 139.819 66.2666L47.9456 65.7225C47.9456 65.7225 47.3139 71.165 47.6619 76.9177C48.0675 82.7928 49.3947 88.1178 49.3947 88.1178L141.326 88.6367Z" fill="#1A7885"/>
<g id="Group_18">
<path id="Vector_17" d="M73.1419 72.8C71.7721 72.2266 69.6899 71.744 67.9232 72.0742C67.5522 71.8703 67.0962 71.9225 66.7544 72.0712C66.4127 72.2199 66.2139 72.5257 66.2433 72.8784C66.3948 76.5401 66.5749 80.2624 66.8403 83.8745C66.8696 84.2272 67.0699 84.5055 67.3554 84.6737C67.5552 84.8059 67.7834 84.8528 67.9829 84.8391C68.1824 84.8254 68.4389 84.7868 68.6667 84.6877C68.9228 84.5032 69.0647 84.2222 69.0353 83.8695C68.9179 82.4588 68.8004 81.0481 68.7112 79.552C70.1655 79.7232 71.5904 79.5416 72.8434 78.9964C73.8116 78.575 75.463 77.7102 75.5729 76.0544C75.741 74.8118 74.7115 73.5057 73.1419 72.8ZM73.4348 76.0347C73.379 76.4975 72.7245 77.0016 71.7563 77.4229C70.8164 77.7589 69.7618 77.8523 68.7922 77.6895C68.7037 76.4855 68.6153 75.2814 68.6124 74.1132L68.6694 74.0885C69.7522 73.9096 71.1212 74.1909 72.0343 74.5245C72.7475 74.7258 73.5187 75.3404 73.4348 76.0347Z" fill="#82D0E4"/>
<path id="Vector_18" d="M83.8346 72.3888C82.5829 71.4769 80.8783 71.1992 79.4881 71.7316C78.0979 72.264 77.2205 73.4472 77.1673 74.9272C77.1673 74.9272 77.1958 74.9876 77.1391 75.0123C76.8297 76.2396 76.7195 77.5988 76.7512 78.969C76.7816 79.757 76.8979 80.8718 77.3546 81.8385C77.9252 82.9012 78.9496 83.7664 80.3423 84.2527C80.9108 84.4423 81.4221 84.5111 81.9049 84.5194C82.9272 84.5114 83.8349 84.1162 84.3727 83.3722C85.0803 82.4086 85.5317 81.1923 85.755 79.6382C85.922 78.2544 85.9188 76.9446 85.6601 75.6732C85.4863 74.2921 84.8587 73.1085 83.8346 72.3888ZM83.5962 79.4126C83.4285 80.5054 83.1466 81.3565 82.6656 82.0758C82.4109 82.4052 82.241 82.6249 81.815 82.5918C81.3889 82.5588 80.9058 82.4049 80.3655 82.1302C79.0574 81.3886 78.9404 79.9827 78.9939 78.6482C79.0185 77.1078 79.2141 75.7844 79.6087 74.5928C79.6936 74.483 79.6933 74.3374 79.6362 74.2166C79.8342 73.9119 80.1461 73.7033 80.515 73.6155C81.2244 73.3795 82.1622 73.6268 82.7031 74.1926C83.3293 74.7941 83.4735 75.6782 83.5609 76.5871C83.7621 77.5921 83.7361 78.5504 83.5962 79.4126Z" fill="#82D0E4"/>
<path id="Vector_19" d="M95.5459 71.5611C93.101 71.6045 90.6843 71.5627 88.2387 71.3148C87.6132 71.2954 87.2727 71.5894 87.2166 71.9055C87.1037 72.2463 87.2184 72.6338 87.4749 72.8868C87.4535 75.7397 87.4606 78.6531 87.6096 81.4318C87.6099 81.5775 87.5817 81.6627 87.6389 81.7837C87.6117 82.3059 87.6131 82.8885 88.0125 83.4438C88.4405 84.0596 89.0664 84.2247 89.6919 84.244C89.8341 84.2551 89.8909 84.2303 90.033 84.2413C90.8858 84.1618 91.7956 84.2033 92.6201 84.2089C93.5868 84.2256 94.5535 84.2424 95.4916 84.1986C95.9463 84.1465 96.2586 83.9377 96.4283 83.5722C96.5697 83.2918 96.5119 82.8795 96.3122 82.6019C96.1125 82.3243 95.7424 82.1208 95.2876 82.1729C94.3781 82.2772 93.4682 82.2357 92.5583 82.1943C91.9328 82.1749 91.2505 82.1802 90.625 82.1609C90.5682 82.1856 90.4828 82.1499 90.426 82.1746C90.2838 82.1636 90.1416 82.1525 90.028 82.202C89.998 81.5588 89.9398 81.0009 89.9098 80.3577C89.8802 79.8602 89.8505 79.3627 89.8777 78.8405L94.6257 78.8883C95.0522 78.9214 95.4212 78.6879 95.5627 78.4076C95.7042 78.1273 95.6749 77.7754 95.532 77.473C95.3037 77.1349 94.9336 76.9315 94.5356 76.9589L89.7594 76.9963C89.7566 75.8309 89.7537 74.6656 89.7508 73.5002C91.7414 73.6546 93.7315 73.6633 95.6931 73.6115C96.091 73.5841 96.4887 73.411 96.6015 73.0702C96.743 72.7899 96.7137 72.4381 96.514 72.1605C96.314 71.7371 95.9724 71.5941 95.5459 71.5611Z" fill="#82D0E4"/>
<path id="Vector_20" d="M110.612 72.4901C110.583 72.2835 110.497 72.1018 110.411 71.92C110.41 71.6281 110.21 71.3499 109.953 71.0964C109.553 70.832 108.955 70.7272 108.5 71.0713C106.793 72.5444 105.287 74.1496 103.895 75.8513C102.894 74.1684 102.064 72.849 101.263 71.5903C101.092 71.3727 100.949 71.2156 100.721 71.1688C100.464 70.9153 99.979 70.761 99.5518 70.8739C99.0391 70.9509 98.7266 71.3061 98.7276 71.744C98.5371 75.4068 98.632 79.2376 98.7254 82.4846C98.7837 83.0437 99.1837 83.4542 99.8106 83.4736C100.438 83.493 100.949 83.124 100.948 82.5402C100.885 80.0836 100.822 77.481 100.844 74.9143C101.445 75.8948 102.074 76.936 102.904 78.2553C103.104 78.5335 103.389 78.7016 103.76 78.7595C104.187 78.7927 104.643 78.5945 104.87 78.3494C105.949 76.857 107.199 75.4362 108.592 74.0264C108.681 75.23 108.769 76.4335 108.858 77.637C109.004 79.3996 109.094 81.187 109.241 82.9496C109.299 83.5087 109.785 83.9549 110.44 83.889C111.067 83.9084 111.55 83.4789 111.492 82.9198C111.345 81.1572 111.198 79.3946 111.109 77.6072C110.877 76.1007 110.787 74.3133 110.612 72.4901Z" fill="#82D0E4"/>
<path id="Vector_21" d="M122.89 78.8698C121.779 76.9514 118.967 75.919 117.774 75.5647C117.604 75.4933 117.377 75.4466 117.15 75.3999C116.269 75.1281 114.963 74.8231 114.621 74.244C114.564 74.1233 114.507 74.0026 114.648 73.7227C114.818 73.3578 115.157 73.0642 115.64 72.9271C116.774 72.5789 118.42 72.8811 119.415 73.3944C119.784 73.5976 120.267 73.6059 120.578 73.3975C120.89 73.189 121.003 72.8487 120.973 72.4975C120.944 72.1462 120.745 71.869 120.375 71.6659C118.585 70.7709 116.343 70.5096 114.642 71.1047C113.65 71.464 112.828 72.1855 112.518 72.9758C112.264 73.5959 112.294 74.238 112.551 74.7814C113.179 76.2552 114.996 76.7742 116.558 77.1862C116.785 77.2329 117.041 77.34 117.268 77.3867C118.234 77.6943 119.114 78.1116 119.825 78.603C120.735 79.2261 121.076 79.6597 120.963 80C120.681 80.5597 119.689 80.919 118.952 81.2399L118.838 81.2892C117.563 81.7719 116.626 81.8156 116.143 81.3709C115.574 80.8906 114.893 81.0414 114.554 81.4804C114.214 81.9194 114.244 82.4161 114.699 82.8003C115.325 83.4015 116.205 83.6733 117.17 83.69C118.135 83.7067 119.298 83.4188 120.545 82.8758C121.565 82.4314 122.84 81.6579 123.15 80.5768C123.29 80.006 123.204 79.3886 122.89 78.8698Z" fill="#82D0E4"/>
</g>
<g id="Group_19">
<path id="Vector_22" d="M126.146 76.936C127.213 77.4331 128.395 77.4362 129.519 77.4645C130.701 77.4676 131.912 77.5321 133.036 77.5604C134.621 77.5357 134.413 75.0348 132.885 75.0343C131.704 75.0312 130.522 75.0281 129.34 75.0249C128.245 75.0581 127.063 75.055 126.027 75.5069C125.566 75.7077 125.626 76.7181 126.146 76.936Z" fill="#82D0E4"/>
</g>
<g id="Group_20">
<path id="Vector_23" d="M54.7452 79.1488C55.5834 79.8947 56.8809 79.8475 57.8614 79.8645C59.0438 79.8676 60.1395 79.8344 61.2929 79.776C63.1383 79.7122 62.929 76.7654 61.0836 76.8292C59.9302 76.8876 58.8059 77.0074 57.6525 77.0658C56.6434 77.1354 55.2882 77.2077 54.627 78.0148C54.3969 78.2633 54.3984 78.8554 54.7452 79.1488Z" fill="#82D0E4"/>
</g>
</g>
</g>
</svg>
