<svg width="115" height="185" viewBox="0 0 115 185" fill="none" xmlns="http://www.w3.org/2000/svg">
<g id="Books">
<g id="Group">
<path id="Vector" d="M48.9635 114.036C48.8584 109.44 51.4265 105.663 54.8638 105.559L63.1069 105.287C66.4381 105.214 69.2698 108.877 69.4492 113.335L71.1008 176.344L72.8195 176.292C73.138 175.04 73.2443 173.851 73.2871 172.451L69.1738 15.5574C68.9947 9.94304 65.6646 5.38851 61.7711 5.514L51.1092 5.81667C47.2157 5.94216 44.0957 10.5785 44.2748 16.1928L48.3881 173.086C48.4515 174.455 48.6209 175.792 48.9707 176.96L50.6894 176.908L48.9635 114.036Z" fill="#60C697"/>
<path id="Vector_2" d="M49.0589 114.354C48.9538 109.759 51.522 105.982 54.9593 105.877L63.2024 105.605C66.5336 105.533 69.3653 109.196 69.5446 113.653L71.2069 176.313L73.4879 176.208L70.8153 76.6039C70.6362 70.9896 67.3061 66.435 63.4126 66.5605L52.7507 66.8632C48.8572 66.9887 45.7372 71.625 45.9163 77.2394L48.5888 176.843L50.8698 176.738L49.0589 114.354Z" fill="#60C697"/>
<path id="Vector_3" d="M71.0268 175.326L68.502 78.9164C68.3333 74.1087 65.5759 70.3079 62.1386 70.4124L53.8955 70.6844C50.5644 70.7571 47.9219 74.672 47.9845 79.5115L50.5092 175.921C50.5092 175.921 54.1491 171.476 60.5356 171.182C67.3466 170.76 71.0268 175.326 71.0268 175.326Z" fill="#E7EFF2"/>
</g>
<g id="Group_2">
<path id="Vector_4" d="M66.6268 68.0265C66.5199 71.5287 66.8692 75.0099 66.9746 78.4486C67.0799 81.8872 67.461 85.4746 67.9164 88.924C68.615 95.8864 69.2394 102.987 69.5879 109.938C70.4547 124.022 70.6214 138.084 70.4697 152.242C70.4361 160.234 70.1585 168.183 69.8809 176.132C69.7955 178.933 74.039 178.819 74.1245 176.017C74.9901 147.649 75.0494 119.291 72.1594 91.1229C71.789 87.1853 71.2807 83.1734 70.4541 79.2568C69.9877 77.3145 69.4471 75.51 68.9807 73.5676C68.5143 71.6252 68.0798 69.789 67.4012 67.9101C67.2422 67.3794 66.5739 67.464 66.6268 68.0265Z" fill="#60C697"/>
</g>
<g id="Group_3">
<path id="Vector_5" d="M45.8781 10.7387C46.2707 10.5054 46.5571 10.3039 46.9815 10.1767L46.9497 10.0706C46.5571 10.3039 46.1646 10.5372 45.8781 10.7387C45.8038 10.8766 45.772 10.7705 45.8781 10.7387Z" fill="#F3B953"/>
</g>
<g id="Group_4">
<path id="Vector_6" d="M47.2153 8.25568C45.3267 9.28423 44.1805 11.2471 43.9042 13.412C43.5111 15.9589 43.3302 18.4423 43.1493 20.9256C42.7026 26.3805 42.3937 31.9097 42.1909 37.4071C41.8807 48.7203 42.1328 59.9808 42.491 71.2095C42.775 82.5761 43.3772 93.8473 43.5232 105.14C43.701 116.538 44.091 127.873 44.7568 139.356C45.1267 145.608 45.4224 151.997 46.0363 158.29C46.2902 161.453 46.682 164.69 46.9359 167.853C47.2216 171.122 47.4331 174.529 48.2492 177.639C48.8428 180.006 52.0893 179.265 52.1959 176.919C52.3875 174.086 52.0168 171.305 51.784 168.598C51.5194 165.786 51.3927 163.048 51.2342 160.203C50.8429 154.653 50.4516 149.102 50.1664 143.519C49.4899 132.386 49.0256 121.189 48.8053 110.035C48.6168 98.9865 48.2161 88.0019 47.9215 76.9855C47.489 65.8948 47.0883 54.9102 47.112 43.7984C47.1239 37.6641 47.3799 31.5724 47.7419 25.4489C47.9017 22.5092 48.2737 19.5059 48.5078 16.4283C48.5716 15.4838 48.6037 14.4331 48.6994 13.5947C48.8693 12.6184 48.6892 11.6313 49.3789 10.8463C50.5463 9.33981 48.8174 7.42863 47.2153 8.25568Z" fill="#60C697"/>
</g>
<g id="Group_5">
<path id="Vector_7" d="M66.3745 9.68702C65.9185 8.55122 65.07 7.64872 64.1472 6.88415C63.2244 6.11958 62.2698 5.24885 61.1984 4.76015C58.6738 3.66581 55.7988 3.7175 53.0617 3.84355C50.5686 4.01216 48.3299 5.02994 46.7594 7.11993C45.4435 8.90227 43.8408 12.0429 45.4954 14.092C45.8666 14.5591 46.6728 14.5489 47.0654 14.3156C48.6039 13.2763 48.4665 10.8883 49.6338 9.38184C50.8436 7.63129 52.6366 7.44112 54.5674 7.3253C56.6043 7.17769 58.7791 7.10446 60.8158 8.11366C62.4706 9.00594 63.9554 10.8745 66.0348 10.4828C66.247 10.4193 66.4381 9.89931 66.3745 9.68702Z" fill="#60C697"/>
</g>
<g id="Group_6">
<path id="Vector_8" d="M57.856 7.49666C59.84 6.78655 62.2161 8.15677 63.4676 9.63257C65.0903 11.5755 65.4928 14.4624 65.6938 17.0627C66.2652 23.6006 66.5184 30.2338 66.8776 36.8352C67.5536 50.2821 67.8795 63.7183 67.9932 77.218C68.056 80.9007 68.0127 84.6152 68.0756 88.298C68.054 90.1552 68.1384 91.9807 68.1168 93.838C68.159 94.7507 68.2331 95.7696 68.3814 96.6505C68.5615 97.6376 69.0599 98.5293 69.2719 99.6226C69.452 100.61 71.0327 100.483 71.2345 99.6129C71.4363 98.7427 71.7759 97.9469 71.9777 97.0767C72.1795 96.2066 72.2115 95.1559 72.1693 94.2432C72.1909 92.3859 72.1064 90.5604 72.1281 88.7032C72.097 85.1266 71.9599 81.5818 71.9607 78.1114C71.7925 70.99 71.6562 63.9748 71.3819 56.8852C71.1819 49.6577 70.8759 42.462 70.538 35.1601C70.4009 31.6153 70.1577 28.1023 69.9145 24.5893C69.7348 21.2886 69.5552 17.9879 69.0573 14.7825C68.5594 11.5772 67.4674 8.31848 64.9748 6.17347C62.5458 4.24075 59.5118 3.76171 56.9653 5.68144C56.074 6.17982 56.689 7.84633 57.856 7.49666Z" fill="#60C697"/>
</g>
<g id="Group_7">
<path id="Vector_9" d="M70.4107 82.9713C70.9204 81.1991 70.5601 79.225 70.2634 77.4631C69.8607 75.733 69.1821 73.8542 68.1746 72.421C65.693 68.7689 61.8741 67.5997 57.8216 67.1944C55.7954 66.9918 53.7692 66.7892 51.8276 67.2552C49.6739 67.7848 48.0822 69.4185 46.9043 71.2752C44.8137 74.3307 41.7145 80.5802 45.2678 83.5641C45.883 84.0739 46.9333 84.1062 47.379 83.2786C47.793 82.3449 47.984 81.8249 48.154 80.8486C48.2814 80.1164 48.4832 79.2462 48.7168 78.4822C49.1521 76.848 49.895 75.4687 50.744 74.0576C51.4445 72.9224 52.2403 72.1055 53.5452 71.8302C55.0942 71.5975 56.7703 71.7893 58.3086 71.9068C61.1729 72.2053 63.496 73.013 65.1717 75.5185C66.7094 77.9496 66.9633 81.1124 68.6496 83.2676C69.0844 83.947 70.1029 83.8732 70.4107 82.9713Z" fill="#60C697"/>
</g>
<path id="Vector_10" d="M66.1296 61.3506C66.2677 60.2682 66.3848 58.7293 65.7485 57.7632C66.0031 57.4556 66.1517 57.1797 66.0245 56.7552C65.3142 54.7702 63.2986 54.2174 61.5271 53.7071C59.6494 53.2286 57.7611 53.1004 55.8303 53.2162C54.0055 53.3002 51.7564 53.5114 50.1861 54.4446C48.011 55.6746 49.0183 58.2647 49.4846 60.207C49.7391 61.0562 50.6619 61.8208 51.5742 61.7788C53.6112 61.6312 55.8178 61.664 57.8122 61.7605C59.8066 61.857 62.0451 61.996 63.9863 62.6868C64.7819 63.0268 65.9596 62.3269 66.1296 61.3506Z" fill="#E7EFF2"/>
<g id="Group_8">
<path id="Vector_11" d="M51.5644 10.4229C50.9383 11.4203 51.0334 12.8955 50.9271 14.0841C50.8843 15.485 50.8098 16.7797 50.8731 18.1488C50.8619 20.8127 50.9143 23.6888 51.3593 26.3317C51.7196 28.3059 54.5416 27.6917 54.5633 25.8344C54.5745 23.1706 54.1295 20.5277 53.9285 17.9274C53.7909 16.6963 53.7275 15.3272 53.5899 14.096C53.484 12.971 53.4207 11.6019 52.8587 10.4979C52.5617 9.8928 51.8616 9.8712 51.5644 10.4229Z" fill="#E7EFF2"/>
</g>
<g id="Group_9">
<path id="Vector_12" d="M56.5717 10.542C55.3084 14.0437 55.5939 18.4694 56.219 22.0993C56.3991 23.0864 56.9718 23.8402 57.9903 23.7664C58.7966 23.7562 59.6985 22.9075 59.6563 21.9948C59.4339 20.095 59.1798 18.089 59.0635 16.1574C58.9472 14.2258 58.831 12.2942 58.3964 10.458C58.1102 9.50265 56.9113 9.74618 56.5717 10.542Z" fill="#E7EFF2"/>
</g>
<g id="Group_10">
<path id="Vector_13" d="M61.3032 10.5124C60.7086 12.7727 61.0475 15.4473 61.047 17.7609C61.0468 18.9177 61.1844 20.1489 61.2159 21.4118C61.2475 22.6748 61.2472 23.8316 61.8411 25.0418C62.3077 25.8274 63.6019 25.9023 64.0159 24.9685C64.4723 23.7907 64.3983 22.7718 64.3985 21.615C64.367 20.352 64.3355 19.0891 64.166 17.7518C63.9225 15.3956 64.0398 12.7 63.1598 10.5345C62.7357 9.50485 61.5793 9.5043 61.3032 10.5124Z" fill="#E7EFF2"/>
</g>
<g id="Group_11">
<path id="Vector_14" d="M62.5401 77.9265C62.4439 81.0785 62.7614 84.4536 62.9092 87.6482C63.0252 90.7366 63.2473 93.7933 63.3633 96.8817C63.6272 103.165 64.0289 109.522 64.2927 115.805C64.8947 128.233 64.9344 140.714 65.2923 153.099C65.4605 160.221 65.5968 167.236 65.6271 174.283C65.6479 175.896 68.0668 175.866 68.0459 174.252C67.8683 161.697 67.5529 149.068 66.9934 136.395C66.7296 130.112 66.3279 123.755 66.064 117.472C65.8002 111.189 65.5364 104.906 65.1346 98.5488C64.8914 95.0358 64.6482 91.5228 64.405 88.0098C64.1936 84.6029 64.0564 81.0581 63.5267 77.7466C63.442 77.078 62.4871 77.364 62.5401 77.9265Z" fill="#D8E5E5"/>
</g>
<g id="Group_12">
<path id="Vector_15" d="M58.4674 73.5945C59.3634 99.3526 60.2594 125.111 60.9115 150.826C61.1114 158.054 61.3114 165.281 61.5114 172.509C61.5322 174.122 63.9192 173.985 63.9302 172.478C63.1402 146.688 62.032 120.994 60.7859 95.2248C60.448 87.9229 60.0359 80.759 59.5919 73.4889C59.4011 72.852 58.3826 72.9259 58.4674 73.5945Z" fill="#D8E5E5"/>
</g>
<g id="Group_13">
<path id="Vector_16" d="M54.2339 75.6725C53.5119 78.665 53.9355 82.0083 54.0197 84.9905C54.1357 88.079 54.2517 91.1674 54.3677 94.2558C54.5572 100.677 54.8529 107.066 55.0424 113.487C55.464 126.085 55.8112 138.82 56.2328 151.418C56.4328 158.645 56.6009 165.767 56.8009 172.994C56.8535 174.714 59.3785 174.651 59.3258 172.932C58.6631 147.567 57.6502 122.191 56.3934 96.7721C56.2563 93.2273 56.0131 89.7142 55.876 86.1695C55.7915 84.344 55.7388 82.6247 55.5483 80.831C55.3577 79.0373 55.3051 77.318 54.7962 75.6197C54.7326 75.4074 54.3825 75.3966 54.2339 75.6725Z" fill="#D8E5E5"/>
</g>
<g id="Group_14">
<path id="Vector_17" d="M51.1669 80.8715C51.0499 82.4104 50.8692 83.7369 50.8583 85.2439C50.8473 86.7509 50.7303 88.2898 50.7512 89.9029C50.7293 92.917 50.7074 95.9311 50.6855 98.9452C50.716 104.835 50.7148 110.619 50.9575 116.446C51.2625 128.269 51.8115 140.135 52.4667 151.968C52.7516 158.708 53.1744 165.521 53.6716 172.197C53.7031 173.46 55.6658 173.45 55.4963 172.113C53.836 148.435 53.2259 124.789 52.4779 101.069C52.3726 97.63 52.2991 94.2975 52.0877 90.8906C52.035 89.1713 51.9823 87.452 51.9615 85.8388C51.9088 84.1195 51.75 82.4319 51.5913 80.7444C51.5595 80.6382 51.2094 80.6275 51.1669 80.8715Z" fill="#D8E5E5"/>
</g>
</g>
</svg>
