<svg width="114" height="183" viewBox="0 0 114 183" fill="none" xmlns="http://www.w3.org/2000/svg">
<g id="Books">
<g id="Group">
<path id="Vector" d="M71.1918 171.923L73.2762 79.5093C73.3935 74.9644 69.6859 70.0107 64.9324 69.0413C62.1971 68.4758 55.0505 68.324 51.8603 69.1129C46.9949 70.429 46.267 74.7862 45.3537 78.8506L43.2694 171.264C43.2694 171.264 48.4866 167.264 57.3074 167.341C66.4471 167.338 71.1918 171.923 71.1918 171.923Z" fill="#E7EFF2"/>
<path id="Vector_2" d="M43.3186 172.832C43.3482 171.583 43.3515 170.227 43.3811 168.978C43.493 166.693 43.4722 164.327 43.584 162.041C43.7517 158.613 43.8132 155.211 43.9546 151.676C44.2101 144.952 44.3329 138.148 44.5883 131.424C44.9896 119.358 44.8856 85.6272 45.2474 78.8768C45.9392 67.529 69.004 66.3408 72.5888 78.0987C72.9846 79.2427 72.5942 97.7414 72.5569 102.154L72.1381 121.45C71.8508 130.327 71.4309 139.123 71.011 147.92C70.7884 152.04 70.6722 156.133 70.556 160.226C70.4135 164.212 70.5363 168.359 70.0484 172.318C69.8861 173.487 71.1589 174.527 72.2749 174.477C73.4699 174.353 74.7482 173.527 74.5914 172.437C74.1748 168.927 74.3963 165.259 74.4051 161.645C74.4139 158.03 74.529 154.389 74.6178 150.641C74.8217 143.252 75.0257 135.864 75.3359 128.449C75.7087 117.18 76.2679 105.752 75.8436 94.4541L76.2844 77.0719L77.5936 19.3967C77.735 15.8619 75.8297 12.7204 73.0177 10.9321C72.4608 10.5053 71.9302 10.185 71.506 9.83833C69.8878 8.77084 68.0833 7.86234 66.2251 7.19291C62.6151 5.82777 58.6049 5.12605 54.7251 5.40815C50.6063 5.63645 46.8033 7.14145 45.1468 10.938C45.013 11.3098 44.7729 11.7078 44.6655 12.186C43.5177 14.3891 42.9805 16.7799 42.656 19.118C42.2514 21.5889 41.9532 24.0335 41.894 26.5318C41.5892 31.6876 41.4971 36.7907 41.325 42.0265C41.007 52.6045 40.7954 63.1562 40.5575 73.6015C40.0279 94.7313 39.631 115.941 39.1014 137.071C38.7538 148.898 38.2999 160.752 38.1913 172.632C38.0773 175.822 43.311 175.995 43.3186 172.832Z" fill="#F6CF3C"/>
<g id="Group_2">
<path id="Vector_3" d="M70.2921 61.0548C69.9741 60.6819 70.0279 60.4428 69.6299 60.2025C69.2056 59.8558 68.7013 59.6419 68.1707 59.3215C67.2685 58.8673 66.2599 58.4393 65.2776 58.1177C63.1804 57.3945 60.8695 57.1758 58.6111 57.1698C56.4591 57.1375 54.1733 57.477 52.0728 58.1093C51.0094 58.3723 49.9986 58.8481 49.0942 59.2975C48.2961 59.7207 46.94 60.169 46.6988 61.0189C46.5914 61.497 46.883 61.7636 47.3609 61.8712C48.1843 62.0063 49.1161 61.2113 49.8079 60.8145C50.7123 60.365 51.6431 60.022 52.7065 59.759C54.5943 59.1792 56.6674 58.8923 58.6868 58.8445C60.7061 58.7967 62.6981 59.0944 64.53 59.6574C65.4859 59.8726 66.4682 60.1941 67.3704 60.6484C67.8747 60.8624 68.2464 60.9962 68.7507 61.2102C69.255 61.4242 69.574 61.3453 70.052 61.4529C70.291 61.5067 70.451 61.2413 70.2921 61.0548Z" fill="#E7EFF2"/>
</g>
<g id="Group_3">
<path id="Vector_4" d="M72.4148 18.5324C71.8589 17.6538 70.9304 17.0931 70.1082 16.5062C69.047 15.8655 67.8794 15.251 66.7382 14.743C64.3494 13.7532 61.8005 13.0288 59.2243 12.6498C55.2403 12.0545 50.3487 13.2643 47.5521 16.1009C46.5665 17.1349 48.1572 18.5479 49.0627 17.6465C51.5667 14.9952 55.7665 14.1823 59.3788 14.6438C61.7161 14.9689 63.9196 15.6658 66.1495 16.4691C67.1581 16.8971 68.1667 17.325 69.2015 17.8594C70.1038 18.3136 70.926 18.9005 71.8819 19.1157C72.2536 19.2496 72.6263 18.9316 72.4148 18.5324Z" fill="#E7EFF2"/>
</g>
<g id="Group_4">
<path id="Vector_5" d="M67.9844 81.3825C67.8802 91.456 67.8561 101.397 67.7519 111.47C67.6148 124.149 67.0261 136.826 66.5437 149.477C66.2619 156.094 65.9538 162.606 65.7784 169.197C65.6962 170.233 67.3965 170.265 67.4787 169.228C67.88 157.162 68.255 144.989 68.5236 132.843C68.8186 120.803 69.2199 108.737 69.2758 96.6428C69.2616 91.566 69.2473 86.4892 68.7814 81.4112C68.7562 80.8529 67.9592 80.8242 67.9844 81.3825Z" fill="#D8E5E5"/>
</g>
<g id="Group_5">
<path id="Vector_6" d="M63.3964 77.8883C62.8581 80.7309 63.1694 83.815 63.0828 86.6588C63.1288 89.5827 63.1486 92.4003 63.0883 95.3505C63.074 101.225 63.086 107.205 62.9654 113.106C62.8305 124.88 62.4829 136.707 61.8964 148.481C61.5083 155.125 61.2528 161.849 60.652 168.545C60.5961 169.688 62.5354 169.773 62.5913 168.63C63.6318 145.003 64.566 121.403 64.5968 97.7999C64.5781 94.5305 64.5332 91.1547 64.5146 87.8853C64.4959 84.6159 64.77 81.1612 64.007 78.0759C64.0882 77.4914 63.5038 77.4101 63.3964 77.8883Z" fill="#D8E5E5"/>
</g>
<g id="Group_6">
<path id="Vector_7" d="M54.7883 77.7591C54.5153 80.762 54.5877 83.7923 54.5274 86.7425C54.4671 89.6927 54.4331 92.7493 54.3727 95.6995C54.1458 101.626 53.9188 107.553 53.4529 113.426C52.7337 125.119 51.6955 136.891 51.2152 148.639C50.9598 155.363 50.8106 162.06 50.7678 168.732C50.7119 169.875 52.625 169.853 52.5745 168.737C52.1251 156.881 52.9781 144.816 53.671 133.016C54.4702 121.19 55.4021 109.444 55.7497 97.6169C55.8111 94.2149 56.0051 90.8929 55.9602 87.5171C55.9416 84.2477 56.003 80.8456 55.5327 77.575C55.6401 77.0969 54.8957 77.281 54.7883 77.7591Z" fill="#D8E5E5"/>
</g>
<g id="Group_7">
<path id="Vector_8" d="M59.8905 77.4005C59.6175 80.4033 59.6898 83.4336 59.6295 86.3838C59.5692 89.334 59.5352 92.3907 59.4749 95.3409C59.248 101.268 59.021 107.194 58.5551 113.067C57.8358 124.761 56.7976 136.533 56.3174 148.28C56.0619 155.004 55.9128 161.702 55.87 168.373C55.8141 169.516 57.7272 169.495 57.6767 168.378C57.2273 156.522 58.0802 144.457 58.7731 132.657C59.5724 120.831 60.5043 109.085 60.8518 97.2583C60.9132 93.8562 61.1073 90.5342 61.0623 87.1584C61.0437 83.8891 61.1051 80.487 60.6348 77.2164C60.6359 76.7645 59.8916 76.9486 59.8905 77.4005Z" fill="#D8E5E5"/>
</g>
<g id="Group_8">
<path id="Vector_9" d="M49.148 80.9604C49.229 91.3268 49.4965 101.534 49.1259 111.899C48.7257 123.514 47.8738 135.127 47.1546 146.82C46.6843 154.501 46.2139 162.181 45.6109 169.781C45.5287 170.818 47.3617 170.929 47.4176 169.786C48.0886 156.073 48.9986 142.413 49.8022 128.78C50.3592 118.255 50.9162 107.731 50.9151 97.232C50.9283 91.8097 50.9151 86.281 49.9449 80.989C49.8134 80.4571 49.1491 80.5085 49.148 80.9604Z" fill="#D8E5E5"/>
</g>
</g>
</g>
</svg>
