<svg width="56" height="195" viewBox="0 0 56 195" fill="none" xmlns="http://www.w3.org/2000/svg">
<g id="Books">
<g id="Group">
<path id="Vector" d="M21.5842 190.324L12.5093 85.8982C12.0149 80.7748 11.8551 70.7414 16.7061 70.2661L32.6187 68.8805C37.4697 68.4051 42.3549 78.1076 42.8492 83.2311L51.1046 187.578C51.1046 187.578 45.257 183.508 35.9412 184.161C26.2203 184.841 21.5842 190.324 21.5842 190.324Z" fill="#E7EFF2"/>
</g>
<path id="Vector_2" d="M37.3023 7.87788C33.6432 4.06193 26.2701 1.45618 20.339 2.00717C15.488 2.48254 4.51577 8.54451 3.56284 14.3122C3.21455 15.151 3.02017 16.2505 2.9419 17.0704C2.68817 19.26 2.70447 21.4307 2.59521 23.7459C2.64411 30.2579 2.96304 36.7509 3.41698 43.2345C4.24658 57.0217 5.61624 70.7711 6.44584 84.5582C7.31589 96.9851 8.46541 109.528 9.74049 121.927C10.9967 134.055 12.1178 146.193 13.239 158.331C13.8279 164.805 14.6774 171.125 15.6714 177.571C15.9294 179.318 16.1779 180.929 16.5708 182.666C16.5803 182.801 16.5992 183.071 16.6087 183.207C16.8356 186.448 17.1976 189.681 18.3602 192.721C18.8598 194.044 20.0938 194.229 21.3778 193.189C21.8894 192.746 21.9987 190.43 21.9609 189.89L12.9685 88.5808C12.8739 87.2301 12.7699 85.7443 12.6753 84.3935C12.7683 79.9077 17.075 75.5341 24.4749 72.7084C32.801 69.5465 39.5222 76.4057 41.0993 79.553C41.5679 82.3706 42.046 85.3234 42.5147 88.1411L44.3004 107.834C44.3193 108.104 44.3288 108.239 44.3477 108.509C44.7071 113.642 45.0759 118.91 45.5703 124.033C46.424 134.29 47.4128 144.536 48.2665 154.793C48.8082 160.592 49.2243 166.535 49.6309 172.343C50.0565 178.422 50.2026 184.384 50.8982 190.443C51.2034 192.865 54.5693 192.494 54.6785 190.179C54.7147 184.882 54.3365 179.479 53.9582 174.076C53.5894 168.808 53.2205 163.54 52.7167 158.282C51.8535 147.89 50.8647 137.644 50.0015 127.252C49.1478 116.996 48.5641 106.721 47.8453 96.4551C47.7035 94.4289 47.4361 92.5474 47.1592 90.5307C47.6924 88.4573 47.3777 85.9003 47.2264 83.7391C46.9117 81.1821 46.462 78.6346 46.2729 75.9331C45.6934 69.594 45.7984 63.3427 45.3539 56.9942C44.465 44.2971 42.8915 31.5121 41.4625 18.8528C41.11 15.7555 40.6224 12.6677 38.9481 10.0702C38.4958 9.42319 38.0435 8.77614 37.6006 8.26419C37.4562 8.13857 37.4467 8.0035 37.3023 7.87788Z" fill="#F46041"/>
<g id="Group_2">
<path id="Vector_3" d="M16.6501 83.0293C17.134 95.7548 19.2381 108.367 20.3876 120.91C21.0238 128.06 21.3806 135.093 21.7468 142.261C22.1035 149.295 22.5953 156.319 22.9521 163.352C23.3845 171.466 23.9519 179.571 24.3843 187.685C24.4599 188.765 26.2152 188.642 26.1395 187.562C25.2815 173.369 24.4235 159.177 23.7006 144.975C22.8804 131.323 22.1859 117.526 20.2856 103.95C19.2538 96.9638 18.0869 89.9872 17.3346 83.1172C17.2968 82.5769 16.6217 82.6241 16.6501 83.0293Z" fill="#D8E5E5"/>
</g>
<g id="Group_3">
<path id="Vector_4" d="M21.4616 76.1772C21.1769 79.862 21.6928 83.3551 22.0831 86.9926C22.464 90.4952 22.845 93.9977 23.1003 97.6447C23.8715 104.785 24.5078 111.934 25.009 119.093C26.2625 133.122 27.2556 147.305 28.3741 161.344C28.951 169.583 29.3833 177.697 30.2303 185.918C30.2965 186.863 31.7816 186.76 31.7154 185.814C30.9736 171.342 29.6916 156.908 28.5447 142.464C27.4262 128.426 26.2982 114.252 24.9096 100.233C24.4909 96.19 24.2072 92.1377 23.7885 88.0949C23.3792 84.1872 23.0955 80.1349 22.0111 76.2745C21.9827 75.8692 21.5777 75.8975 21.4616 76.1772Z" fill="#D8E5E5"/>
</g>
<g id="Group_4">
<path id="Vector_5" d="M26.9593 75.2492C27.8362 89.7117 29.5232 104.118 30.6701 118.561C31.8075 132.87 32.6655 147.062 33.3979 161.399C33.8398 169.648 34.1467 177.907 34.5885 186.156C34.6642 187.236 36.4193 187.113 36.3436 186.033C35.0043 157.214 33.6651 128.396 30.7057 99.6911C29.8588 91.4704 28.8769 83.2592 27.6344 75.2019C27.471 74.8061 26.931 74.844 26.9593 75.2492Z" fill="#D8E5E5"/>
</g>
<g id="Group_5">
<path id="Vector_6" d="M31.7508 75.8639C31.8711 79.5204 32.6665 83.1297 33.0569 86.7672C33.4472 90.4048 33.9726 94.0329 34.3629 97.6705C35.1247 104.676 35.8865 111.681 36.3783 118.705C37.4968 132.743 38.2198 146.945 39.0683 161.002C39.4912 168.981 40.0587 177.085 40.6166 185.055C40.7017 186.271 42.5919 186.138 42.5068 184.923C40.3764 156.431 39.7406 127.971 36.53 99.5549C36.1113 95.512 35.5575 91.4787 35.0038 87.4453C34.4595 83.547 33.8963 79.3786 32.8214 75.6532C32.5041 74.9968 31.7035 75.1885 31.7508 75.8639Z" fill="#D8E5E5"/>
</g>
<g id="Group_6">
<path id="Vector_7" d="M38.025 78.2752C37.8658 81.8156 38.2561 85.4532 38.5115 89.1002C38.7573 92.6122 39.0127 96.2592 39.3936 99.7617C40.0204 106.776 40.6566 113.926 41.1484 120.95C42.2575 134.853 43.376 148.891 44.3501 162.804C44.6243 166.721 44.8986 170.639 45.0378 174.565C45.1797 176.591 45.1771 178.492 45.3189 180.518C45.4608 182.544 45.4676 184.58 45.8795 186.587C46.0523 187.118 46.8625 187.061 46.9597 186.511C47.3984 183.087 46.873 179.459 46.7716 176.073C46.5257 172.561 46.4054 168.904 46.1595 165.392C45.6677 158.368 45.1665 151.209 44.6748 144.185C43.5467 130.012 42.4282 115.974 41.1652 101.81C40.8909 97.8923 40.4816 93.9845 40.0724 90.0768C39.6631 86.1691 39.5144 82.1073 38.6906 78.0928C38.6622 77.6876 38.1316 77.8606 38.025 78.2752Z" fill="#D8E5E5"/>
</g>
</g>
</svg>
