<svg width="124" height="144" viewBox="0 0 124 144" fill="none" xmlns="http://www.w3.org/2000/svg">
<g id="Books">
<g id="Group">
<g id="Group_2">
<path id="Vector" d="M80.1602 92.4292C77.4906 92.4219 75.2193 90.7978 75.0588 88.7011L74.6613 83.6724C74.5223 81.6407 76.5704 79.9716 79.1577 79.9315L115.756 79.9034L115.676 78.855C114.939 78.6414 114.244 78.5581 113.428 78.5103L22.2986 78.5808C19.0385 78.6027 16.4862 80.5619 16.6722 82.937L17.1578 89.4405C17.3438 91.8157 20.1308 93.7895 23.3909 93.7675L114.52 93.697C115.315 93.6796 116.088 93.5971 116.757 93.402L116.676 92.3536L80.1602 92.4292Z" fill="#60C697"/>
<path id="Vector_2" d="M80.4092 91.7158C77.7454 91.7087 75.4794 90.0929 75.3194 88.0067L74.9233 83.0034C74.7848 80.9821 76.8285 79.3212 79.4101 79.2812L115.724 79.2397L115.597 77.8548L57.8732 77.9391C54.6203 77.9611 52.0735 79.9104 52.2589 82.2736L52.7427 88.7443C52.928 91.1075 55.7088 93.0712 58.9617 93.0492L116.686 92.9648L116.559 91.5799L80.4092 91.7158Z" fill="#60C697"/>
<path id="Vector_3" d="M115.182 79.294L59.2631 79.3372C56.4757 79.3654 54.3482 80.9818 54.5083 83.0715L54.9049 88.0835C55.0435 90.1083 57.3937 91.7742 60.2026 91.811L116.121 91.7678C116.121 91.7678 113.435 89.4878 113.079 85.6034C112.637 81.4592 115.182 79.294 115.182 79.294Z" fill="#E7EFF2"/>
</g>
<g id="Group_3">
<path id="Vector_4" d="M53.0462 80.623C55.0947 80.7414 57.1181 80.5785 59.1234 80.5653C61.1288 80.5521 63.2132 80.3712 65.2149 80.1425C69.2615 79.8168 73.3908 79.5389 77.4411 79.4286C85.6422 79.1062 93.8506 79.2148 102.124 79.5209C106.792 79.6617 111.443 79.9521 116.093 80.2425C117.732 80.3372 117.545 77.7216 115.906 77.6269C99.3127 76.6675 82.7484 76.205 66.3787 77.562C64.0894 77.731 61.7607 77.9838 59.4967 78.4342C58.3754 78.6923 57.3369 78.9982 56.2157 79.2563C55.0944 79.5143 54.0343 79.7544 52.9562 80.1442C52.6508 80.2342 52.7192 80.6471 53.0462 80.623Z" fill="#60C697"/>
</g>
<g id="Group_4">
<path id="Vector_5" d="M19.7806 94.1087C19.641 93.8779 19.5216 93.7092 19.4405 93.4611L19.3819 93.4784C19.5216 93.7092 19.6613 93.9399 19.7806 94.1087C19.8595 94.1534 19.8009 94.1707 19.7806 94.1087Z" fill="#F3B953"/>
</g>
<g id="Group_5">
<path id="Vector_6" d="M18.3263 91.6158C18.9804 92.791 20.1583 93.5246 21.4292 93.7271C22.9263 94.0072 24.3802 94.156 25.8341 94.3048C29.0291 94.6621 32.2636 94.9357 35.4765 95.1438C42.0853 95.5062 48.6472 95.5225 55.1876 95.4732C61.8105 95.4717 68.3687 95.2732 74.9522 95.3552C81.5967 95.4192 88.198 95.3521 94.8782 95.1178C98.5145 94.9857 102.233 94.9012 105.887 94.62C107.725 94.5121 109.603 94.3208 111.44 94.2129C113.339 94.0872 115.321 94.0092 117.112 93.5553C118.475 93.2268 117.95 91.2222 116.579 91.1211C114.92 90.9604 113.309 91.1458 111.736 91.2476C110.103 91.3673 108.509 91.4035 106.855 91.4576C103.628 91.6134 100.401 91.7693 97.1519 91.8596C90.6764 92.1058 84.1576 92.2207 77.6567 92.1864C71.2168 92.1342 64.8201 92.2133 58.4018 92.2268C51.944 92.3238 45.5473 92.4029 39.0642 92.2194C35.4853 92.1189 31.9241 91.8691 28.3415 91.5538C26.6219 91.411 24.8592 91.1369 23.0571 90.9464C22.5042 90.8929 21.8904 90.8572 21.3985 90.7857C20.8241 90.6665 20.2534 90.7621 19.7757 90.3267C18.8635 89.5871 17.798 90.6195 18.3263 91.6158Z" fill="#60C697"/>
</g>
<g id="Group_6">
<path id="Vector_7" d="M18.7596 82.1585C18.1375 82.4083 17.6569 82.8916 17.2554 83.4205C16.8539 83.9494 16.394 84.4953 16.1509 85.1153C15.6101 86.5773 15.7197 88.2618 15.8669 89.8666C16.0311 91.3291 16.6628 92.6555 17.875 93.6068C18.9082 94.4044 20.7085 95.3903 21.8074 94.4523C22.0581 94.242 22.0298 93.7696 21.8884 93.5362C21.2643 92.6195 19.9334 92.6639 19.0586 91.9576C18.0462 91.2227 17.8897 90.1698 17.7707 89.0374C17.6311 87.8423 17.5292 86.5675 18.0361 85.39C18.4884 84.4344 19.4912 83.5931 19.2139 82.3694C19.1724 82.2442 18.8764 82.1244 18.7596 82.1585Z" fill="#60C697"/>
</g>
<g id="Group_7">
<path id="Vector_8" d="M17.9811 86.5606C17.51 85.3265 18.2433 83.8817 19.0701 83.132C20.1594 82.1604 21.8348 81.9553 23.3484 81.8703C27.1522 81.6157 31.0207 81.5588 34.8677 81.4359C42.7054 81.2202 50.5467 81.2201 58.4312 81.3519C60.5812 81.3682 62.7528 81.4504 64.9027 81.4668C65.9885 81.5079 67.0527 81.4831 68.1385 81.5242C68.6706 81.5118 69.2638 81.4814 69.7744 81.4031C70.346 81.3068 70.8529 81.0127 71.4857 80.8984C72.0573 80.8021 71.9386 79.8254 71.4244 79.6879C70.9103 79.5505 70.4357 79.3291 69.9215 79.1917C69.4074 79.0543 68.7926 79.0188 68.2605 79.0312C67.1747 78.9901 66.1105 79.0149 65.0247 78.9737C62.9359 78.9394 60.8686 78.9709 58.8408 78.9186C54.6847 78.9158 50.5896 78.895 46.4551 78.9581C42.2378 78.9733 38.0421 79.0544 33.7853 79.1536C31.718 79.1851 29.6723 79.2826 27.6265 79.3801C25.7031 79.4415 23.7796 79.5029 21.9209 79.762C20.0621 80.0211 18.189 80.6458 17.0063 82.1508C15.9459 83.6198 15.7519 85.4837 16.9457 87.0828C17.2622 87.6399 18.2185 87.2856 17.9811 86.5606Z" fill="#60C697"/>
</g>
<g id="Group_8">
<path id="Vector_9" d="M61.3195 79.4176C60.2996 79.0887 59.1903 79.2705 58.1996 79.4181C57.23 79.6288 56.184 80.0002 55.4003 80.5728C53.4009 81.9815 52.8486 84.219 52.7363 86.6066C52.6802 87.8004 52.6241 88.9941 52.9447 90.1484C53.3076 91.4289 54.2804 92.3948 55.3677 93.1199C57.1614 94.4028 60.796 96.3317 62.3854 94.2796C62.6566 93.9241 62.6445 93.3042 62.1622 93.0279C61.6206 92.7687 61.3201 92.6477 60.7614 92.532C60.3424 92.4452 59.843 92.3123 59.4029 92.1623C58.4633 91.8795 57.6595 91.419 56.8344 90.8953C56.1702 90.4637 55.6838 89.9808 55.4898 89.2056C55.3128 88.2869 55.373 87.2998 55.395 86.3929C55.4812 84.7056 55.8719 83.3459 57.2444 82.3954C58.5787 81.5252 60.3652 81.4249 61.5387 80.4626C61.9114 80.2164 61.84 79.6136 61.3195 79.4176Z" fill="#60C697"/>
</g>
<path id="Vector_10" d="M49.0004 82.0172C48.3789 81.9261 47.4971 81.8433 46.9587 82.2085C46.7775 82.0561 46.6167 81.9662 46.3768 82.0371C45.2578 82.4366 44.9852 83.6161 44.7316 84.6527C44.4985 85.7519 44.4658 86.8605 44.5734 87.9963C44.6606 89.0695 44.8295 90.3933 45.3964 91.3247C46.146 92.6142 47.6043 92.0458 48.7042 91.7893C49.1839 91.6475 49.601 91.1121 49.5574 90.5755C49.4294 89.377 49.4008 88.0805 49.4131 86.9092C49.4254 85.7379 49.4568 84.4236 49.8099 83.2889C49.9871 82.8244 49.5619 82.1259 49.0004 82.0172Z" fill="#E7EFF2"/>
<g id="Group_9">
<path id="Vector_11" d="M19.5834 90.6353C20.1822 91.0333 21.0385 90.9979 21.7337 91.0812C22.5506 91.1289 23.3067 91.1945 24.1021 91.1769C25.6536 91.2248 27.3268 91.2371 28.8528 91.0059C29.992 90.8161 29.5528 89.0819 28.4707 89.0401C26.9193 88.9922 25.3932 89.2234 23.8849 89.3061C23.172 89.3713 22.3766 89.3889 21.6637 89.454C21.0116 89.5014 20.2163 89.519 19.5896 89.8454C19.2459 90.0176 19.2535 90.4451 19.5834 90.6353Z" fill="#E7EFF2"/>
</g>
<g id="Group_10">
<path id="Vector_12" d="M19.6339 87.7624C21.7063 88.5861 24.2709 88.4812 26.363 88.157C26.9316 88.0626 27.3532 87.7256 27.2807 87.1042C27.2513 86.6131 26.7318 86.0506 26.2024 86.0621C25.1044 86.168 23.9456 86.2915 22.826 86.3323C21.7065 86.373 20.5869 86.4138 19.532 86.6498C18.985 86.8093 19.1614 87.5431 19.6339 87.7624Z" fill="#E7EFF2"/>
</g>
<g id="Group_11">
<path id="Vector_13" d="M19.5902 84.9959C20.9235 85.3942 22.4711 85.2283 23.8183 85.2643C24.4919 85.2823 25.2048 85.2171 25.9392 85.2173C26.6737 85.2175 27.3473 85.2355 28.0348 84.8913C28.4788 84.6182 28.485 83.8284 27.9293 83.5611C27.2303 83.264 26.6392 83.2935 25.9656 83.2755C25.2311 83.2753 24.4966 83.2751 23.7228 83.358C22.3579 83.4705 20.7849 83.3573 19.5494 83.8617C18.9621 84.105 18.9952 84.8117 19.5902 84.9959Z" fill="#E7EFF2"/>
</g>
</g>
<g id="Group_12">
<path id="Vector_14" d="M113.369 60.2028C113.369 60.2028 47.998 61.6182 25.9637 61.2013C23.9439 61.1684 22.1169 59.4606 21.8362 57.1528C21.707 56.1362 21.5569 55.0555 21.529 53.9385C21.44 52.8397 21.4121 51.7227 21.4869 50.7159C21.5324 48.3815 23.0717 46.7286 25.1109 46.6151C47.2351 45.247 112.516 45.6166 112.516 45.6166C114.515 45.5854 116.26 47.2472 116.663 49.5187C116.853 50.5171 116.963 51.6801 117.012 52.8612C117.081 54.1065 117.109 55.2235 117.034 56.2303C116.907 58.5187 115.368 60.1716 113.369 60.2028Z" fill="#F46041"/>
<g id="Group_13">
<path id="Vector_15" d="M57.3041 49.6735C57.4696 51.958 57.6565 54.307 57.822 56.5916C57.869 56.9314 57.8342 57.2242 57.8812 57.564C57.9538 58.1791 79.6254 58.1969 79.5528 57.5818C79.3874 55.2972 79.2004 52.9482 79.0349 50.6637C78.9879 50.3239 79.0228 50.0311 78.9757 49.6913C78.9636 49.0587 57.2315 49.0584 57.3041 49.6735Z" fill="#F9EFE8"/>
</g>
<g id="Group_14">
<path id="Vector_16" d="M26.4275 50.0771C25.5358 53.1395 25.6753 56.6493 26.8315 59.7913L26.4275 50.0771Z" fill="#F9EFE8"/>
<g id="Group_15">
<path id="Vector_17" d="M26.0008 50.049C25.4148 51.5212 25.1834 53.301 25.2398 54.9968C25.2963 56.6927 25.6082 58.5881 26.3188 60.1618C26.7029 60.9402 27.5784 60.3425 27.4085 59.6387C27.0272 58.106 26.5514 56.6693 26.4581 55.0527C26.3647 53.436 26.5062 51.9564 26.6846 50.3976C26.7125 49.91 26.1646 49.5903 26.0008 50.049Z" fill="#FDF0E8"/>
</g>
</g>
<g id="Group_16">
<path id="Vector_18" d="M29.4908 50.3448C29.2693 51.9792 29.0108 53.6928 29.0597 55.3837C29.1086 57.0747 29.5056 58.8675 30.3584 60.3209L29.4908 50.3448Z" fill="#F9EFE8"/>
<g id="Group_17">
<path id="Vector_19" d="M29.053 50.0433C28.7256 50.9601 28.5544 51.9683 28.5188 53.0052C28.4052 53.9965 28.4065 54.9543 28.4859 55.9576C28.524 56.8362 28.6978 57.7435 28.9866 58.6173C29.2547 59.4286 29.5479 60.5064 30.2141 60.9962C30.6253 61.2867 31.1959 60.9147 31.1458 60.3818C31.0133 59.5993 30.5358 58.9175 30.3089 58.231C30.0408 57.4197 29.9658 56.6203 29.8701 55.7586C29.8319 54.8801 29.8513 53.9847 29.8706 53.0894C29.9474 52.1773 30.1023 51.3108 29.986 50.3866C29.9154 49.7913 29.1961 49.5224 29.053 50.0433Z" fill="#FDF0E8"/>
</g>
</g>
<g id="Group_18">
<path id="Vector_20" d="M106.96 47.1228C107.543 47.3606 107.673 48.1415 107.704 48.8149C107.947 51.6783 108.018 54.5926 107.818 57.4502L106.96 47.1228Z" fill="#F9EFE8"/>
<g id="Group_19">
<path id="Vector_21" d="M106.742 47.3033C107.179 47.8607 107.193 48.4731 107.227 49.148C107.265 50.027 107.304 50.906 107.285 51.8018C107.325 53.639 107.286 55.4306 107.228 57.1597C107.151 58.0723 108.414 58.4571 108.434 57.5613C108.52 55.3446 108.55 53.1448 108.365 50.8704C108.306 49.9289 108.292 46.6459 106.865 46.7198C106.655 46.8494 106.623 47.1328 106.742 47.3033Z" fill="#FDF0E8"/>
</g>
</g>
<g id="Group_20">
<path id="Vector_22" d="M109.701 46.7605C110.959 50.0608 111.459 53.7226 111.078 57.1707L109.701 46.7605Z" fill="#F9EFE8"/>
<g id="Group_21">
<path id="Vector_23" d="M109.469 46.733C109.58 48.4085 110.076 50.1078 110.245 51.7665C110.455 53.5499 110.431 55.1967 110.313 56.9395C110.277 57.9751 111.575 58.4825 111.726 57.4133C112.016 55.62 111.896 53.537 111.608 51.7081C111.321 49.8793 110.841 48.0386 109.698 46.6657C109.636 46.4788 109.485 46.5916 109.469 46.733Z" fill="#FDF0E8"/>
</g>
</g>
</g>
<g id="Group_22">
<g id="Group_23">
<path id="Vector_24" d="M103.248 95.3114L49.1705 95.3306C46.5101 95.3224 43.8325 97.6607 43.5418 100.583C43.37 102.265 43.6952 106.641 44.3406 108.582C45.3907 111.541 47.9769 111.925 50.4028 112.427L104.48 112.408C104.48 112.408 101.843 109.271 101.377 103.872C100.846 98.2791 103.248 95.3114 103.248 95.3114Z" fill="#E7EFF2"/>
<path id="Vector_25" d="M105.315 112.978C104.583 112.978 103.79 112.995 103.058 112.994C101.715 112.957 100.333 113.003 98.9901 112.967C96.9757 112.912 94.9828 112.922 92.9077 112.885C88.9611 112.822 84.9753 112.843 81.0287 112.78C73.9499 112.703 54.2326 113.241 50.2645 113.113C43.5888 112.848 41.5557 98.7066 48.2229 96.3411C48.8689 96.0821 59.7084 96.062 62.2905 96.0229L73.5978 96.0092C78.8051 96.0609 83.9733 96.1951 89.1415 96.3294C91.5631 96.4082 93.9632 96.4221 96.3633 96.436C98.7027 96.4675 101.12 96.3339 103.464 96.5778C104.157 96.661 104.691 95.8651 104.597 95.1807C104.563 94.4787 103.898 93.6759 103.269 93.7874C101.241 94.0924 99.0839 94.008 96.9697 94.0533C94.8554 94.0987 92.7196 94.0791 90.5231 94.0772C86.1909 94.0558 81.8586 94.0343 77.5048 93.9479C70.8938 93.8773 64.1791 93.6945 57.5976 94.1135L47.4081 94.087L13.6074 94.093C11.5323 94.0559 9.80594 95.2695 8.92342 97.0207C8.7062 97.3686 8.54967 97.6988 8.37158 97.9641C7.84128 98.9723 7.41475 100.093 7.13115 101.243C6.54238 103.478 6.36476 105.949 6.75485 108.327C7.12735 110.852 8.22804 113.165 10.5441 114.129C10.7693 114.206 11.016 114.348 11.3018 114.407C12.6566 115.08 14.0858 115.377 15.4718 115.543C16.9401 115.757 18.3868 115.905 19.8511 115.907C22.8836 116.021 25.8729 116.006 28.9444 116.038C35.1482 116.085 41.3304 116.067 47.452 116.066C59.838 116.095 72.2631 116.041 84.6491 116.069C91.585 116.116 98.5425 116.229 105.496 116.128C107.368 116.154 107.165 112.939 105.315 112.978Z" fill="#F6CF3C"/>
<g id="Group_24">
<path id="Vector_26" d="M38.3047 98.9492C38.1164 99.1411 37.981 99.1122 37.8707 99.3497C37.7031 99.6039 37.6134 99.9038 37.4663 100.22C37.2663 100.758 37.0869 101.357 36.9648 101.94C36.684 103.185 36.6944 104.55 36.8195 105.882C36.9241 107.151 37.2419 108.495 37.7113 109.726C37.9173 110.349 38.238 110.94 38.5381 111.468C38.8177 111.933 39.1428 112.727 39.6268 112.859C39.8975 112.917 40.0284 112.742 40.0607 112.459C40.0886 111.972 39.5958 111.432 39.3369 111.029C39.0367 110.501 38.794 109.956 38.588 109.332C38.1598 108.226 37.8832 107.008 37.7418 105.818C37.6005 104.628 37.6519 103.45 37.8592 102.363C37.9239 101.797 38.046 101.214 38.246 100.677C38.3357 100.377 38.3886 100.156 38.4783 99.8561C38.568 99.5563 38.5062 99.3691 38.5386 99.086C38.5547 98.9445 38.3988 98.8533 38.3047 98.9492Z" fill="#E7EFF2"/>
</g>
<g id="Group_25">
<path id="Vector_27" d="M13.1455 99.1608C12.6875 99.4996 12.4286 100.055 12.1489 100.548C11.853 101.183 11.578 101.881 11.3608 102.562C10.9474 103.987 10.6913 105.503 10.6296 107.032C10.529 109.395 11.4885 112.276 13.2341 113.899C13.8684 114.471 14.5644 113.513 14.0088 112.988C12.3836 111.536 11.6858 109.06 11.7333 106.918C11.7789 105.531 12.0397 104.219 12.3583 102.891C12.5385 102.29 12.7187 101.688 12.9567 101.07C13.1577 100.531 13.4375 100.038 13.502 99.4695C13.5551 99.2481 13.356 99.0312 13.1455 99.1608Z" fill="#E7EFF2"/>
</g>
</g>
<g id="Group_26">
<path id="Vector_28" d="M33.7329 98.4221C33.2896 99.5763 33.056 100.6 32.9612 101.856C32.8867 103.174 32.9273 104.457 33.0457 105.787C33.2013 107.036 33.4347 108.331 33.8204 109.513C34.0234 110.135 34.2062 110.695 34.4667 111.3C34.7069 111.842 34.8524 112.481 35.3769 112.735C35.5326 112.826 35.7052 112.775 35.7018 112.571C35.7898 112.068 35.5902 111.649 35.3702 111.169C35.13 110.626 34.9473 110.066 34.7646 109.507C34.3788 108.325 34.1082 107.109 33.9526 105.859C33.8173 104.672 33.7598 103.529 33.8174 102.353C33.8072 101.742 33.8546 101.114 33.9799 100.532C34.0273 99.9037 34.0171 99.2929 34.0645 98.665C34.0409 98.3992 33.7871 98.2015 33.7329 98.4221Z" fill="#FDF0E8"/>
</g>
</g>
<g id="Group_27">
<path id="Vector_29" d="M77.4534 63.1386L78.0934 74.0767C78.1195 74.9731 78.9559 75.6995 79.9496 75.684L107.409 75.3571C107.409 75.3571 104.835 72.571 104.564 68.27C104.252 64.0503 106.525 61.2225 106.525 61.2225L79.0654 61.5494C78.1325 61.547 77.4272 62.2422 77.4534 63.1386Z" fill="#E7EFF2"/>
<path id="Vector_30" d="M84.561 62.2043L106.696 61.9532C107.103 61.9726 107.386 61.6078 107.363 61.1235L107.321 60.9954C107.318 60.5751 106.929 60.1994 106.521 60.18L76.9265 60.5389C76.9265 60.5389 31.3491 60.5167 16.1886 61.2252C13.0913 61.3722 12.4993 64.2855 12.6605 67.0455L13.0509 73.5982C13.212 76.3582 14.7324 78.1533 17.3055 78.8638C17.8978 79.039 29.2745 79.4534 42.0132 79.3232C58.8077 79.1126 78.0434 78.1775 78.0642 78.2415L107.658 77.8826C108.066 77.902 108.349 77.5373 108.326 77.0529C108.323 76.6326 107.933 76.2569 107.525 76.2375L85.3905 76.4886C84.3918 76.5042 77.903 75.4816 77.6696 71.0583L77.464 67.75C77.275 63.8751 83.6234 62.2017 84.561 62.2043Z" fill="#1A7885"/>
<path id="Vector_31" d="M28.5572 70.2382C28.8737 69.802 28.9906 69.3563 29.007 68.8034C29.0221 68.0453 28.5986 67.3487 27.9576 66.9903C27.3969 66.6768 26.7382 66.6663 26.0619 67.0035C26.0021 67.0212 25.9424 67.0389 25.9424 67.0389C25.8228 67.0743 25.7631 67.092 25.6639 67.1898C25.5648 67.2877 25.5063 67.5105 25.5076 67.7157C25.6403 69.7316 25.834 71.935 26.1269 74.0405C26.1677 74.1655 26.2084 74.2904 26.2491 74.4154C26.3496 74.5227 26.45 74.6299 26.5899 74.657C26.67 74.7018 26.7298 74.6841 26.7895 74.6664C26.8493 74.6487 26.909 74.6311 26.9688 74.6134C27.0285 74.5957 27.1481 74.5603 27.2282 74.6051C27.6071 74.5614 28.0661 74.5625 28.4437 74.3137C28.9611 74.092 29.3971 73.6204 29.5928 73.0144C29.8482 72.3908 29.8239 71.7129 29.5009 71.1235C29.2796 70.8464 28.9578 70.4621 28.5572 70.2382ZM27.5269 68.2825C27.7672 68.4169 27.8283 68.6043 27.85 68.8719C27.7929 69.2999 27.5157 69.6559 26.9589 69.9578C26.8952 69.3601 26.8518 68.8249 26.8085 68.2896C27.0869 68.1387 27.3463 68.1304 27.5269 68.2825ZM27.9459 71.3783C28.1862 71.5127 28.4673 71.772 28.5093 72.1021C28.5717 72.4947 28.2946 72.8507 28.0162 73.0017C27.7975 73.1349 27.4987 73.2233 27.2393 73.2316C27.1756 72.6339 27.0916 71.9737 27.0075 71.3136C27.4462 71.2522 27.7259 71.3064 27.9459 71.3783Z" fill="white"/>
<path id="Vector_32" d="M33.6602 66.6449C33.3409 66.6708 33.1032 66.9468 33.0855 67.2948C33.1317 68.2409 33.1779 69.187 33.1439 70.0883L33.1643 70.1508C33.1697 70.9719 33.1153 71.8106 32.8599 72.4346C32.6629 72.8357 32.5637 72.9336 32.5243 73.0138C32.4836 72.8888 32.4224 72.7012 32.4021 72.6387C32.1575 71.8884 32.0325 71.1027 31.9266 70.1743C31.8002 69.1834 31.7541 68.2373 31.7079 67.2912C31.7255 66.9432 31.4239 66.6211 31.0843 66.5845C30.7446 66.5479 30.5069 66.824 30.5096 67.2345C30.4756 68.1358 30.6019 69.1267 30.6685 70.1353C30.8356 71.2513 31.0217 72.2245 31.2268 73.055C31.3287 73.3677 31.5529 74.0554 32.1738 74.3516C32.3137 74.3787 32.4537 74.4058 32.5936 74.433C32.993 74.4519 33.3707 74.203 33.6873 73.7665C34.281 72.9738 34.3734 71.8496 34.4468 70.8681C34.4794 69.7616 34.4713 68.53 34.4034 67.3161C34.2811 66.941 33.9999 66.6814 33.6602 66.6449Z" fill="white"/>
<path id="Vector_33" d="M38.485 69.3834C38.1239 69.0794 37.6841 68.9356 37.2646 68.8543C36.985 68.8001 36.685 68.6835 36.5439 68.4513C36.4828 68.2639 36.5412 68.0411 36.7001 67.9256C36.9581 67.7122 37.3572 67.731 37.7563 67.7498L37.816 67.7321C38.1554 67.7686 38.3931 67.4928 38.3904 67.0826C38.3878 66.6724 38.0865 66.3506 37.7674 66.3766C37.1688 66.3484 36.0311 66.2743 35.5001 67.4589C35.2638 67.9399 35.2474 68.4927 35.4699 68.9748C35.6721 69.3944 35.9938 69.7786 36.5137 69.9671C36.7336 70.039 36.8938 70.1285 37.0933 70.138C37.3132 70.2098 37.4531 70.2369 37.6132 70.3265C37.8535 70.4608 38.1141 70.6577 38.2553 70.8898C38.5172 71.2918 38.9216 72.131 38.5645 72.4422C38.3662 72.6379 37.9481 72.7617 37.5897 72.8678C37.4702 72.9032 37.0317 72.9645 36.8104 72.6876C36.6693 72.4554 36.4494 72.3835 36.2702 72.4365C36.0109 72.4448 35.8724 72.6228 35.814 72.8456C35.7555 73.0684 35.7569 73.2735 35.898 73.5057C36.3608 74.1221 36.9405 74.2929 37.3993 74.2941C37.9179 74.2775 38.3157 74.0912 38.5546 74.0205C38.9131 73.9144 39.3502 73.6479 39.6069 73.2294C39.8636 72.811 39.9601 72.3029 39.8366 71.723C39.7309 70.7954 39.1867 69.9291 38.485 69.3834Z" fill="white"/>
<path id="Vector_34" d="M42.4567 72.908C42.4366 72.8458 42.4164 72.7836 42.4554 72.7038C42.4326 72.2332 42.3507 71.7802 42.348 71.3718C42.2621 70.3063 42.1762 69.2407 42.0902 68.1752L42.0701 68.113C42.0285 67.7844 42.0459 67.4382 42.0043 67.1096C41.9425 66.7188 41.6645 66.4607 41.3488 66.4865C41.0331 66.5123 40.798 66.7869 40.7805 67.1331C40.9107 68.9356 41.0611 70.8003 41.2115 72.6651C41.2316 72.7273 41.1926 72.8071 41.2128 72.8693C41.2141 73.0735 41.2155 73.2776 41.2759 73.4642C41.2974 73.7306 41.476 73.882 41.6547 74.0334C41.734 74.078 41.8132 74.1226 41.9314 74.0874C42.0698 74.1143 42.1679 74.0169 42.2861 73.9817C42.4433 73.8667 42.501 73.6449 42.4796 73.3785C42.4782 73.1744 42.4379 73.05 42.4567 72.908Z" fill="white"/>
<path id="Vector_35" d="M46.7949 66.0858C46.614 65.9335 46.3746 66.0043 46.1556 66.1377C45.9965 66.2534 45.8782 66.4942 45.8795 66.6996L46.1827 70.2456C45.8182 69.5302 45.4741 68.8774 45.13 68.2246C44.907 67.7418 44.6037 67.2142 44.4201 66.6511C44.2582 66.356 43.9373 66.1765 43.638 66.265C43.3986 66.3358 43.2408 66.6569 43.2626 66.9249L43.283 66.9874C43.4299 68.0416 43.5169 69.1134 43.6433 70.105C43.7902 71.1591 43.8772 72.231 44.0241 73.2851C44.0663 73.6156 44.3682 73.9379 44.6878 73.9119C45.0673 73.8683 45.3054 73.5921 45.2428 73.199C45.1163 72.2074 44.9899 71.2158 44.9437 70.2691C45.3286 71.0471 45.7733 71.8073 46.1582 72.5852L46.2996 72.8178C46.4207 72.9877 46.4819 73.1754 46.6029 73.3454C46.7648 73.6405 47.0654 73.7574 47.3048 73.6866C47.604 73.5981 47.7223 73.3573 47.74 73.0091L47.2383 66.6406C47.0969 66.408 46.9554 66.1755 46.7949 66.0858Z" fill="white"/>
<path id="Vector_36" d="M51.5185 66.0423C50.559 65.9148 49.6402 65.9124 48.7419 65.9725C48.5421 65.9631 48.3831 66.0787 48.3042 66.2391C48.205 66.3371 48.2064 66.5424 48.1873 66.6851C48.273 67.5512 48.3586 68.4173 48.4238 69.2208C48.5121 70.4975 48.6004 71.7741 48.8287 73.0779C48.8709 73.4083 49.1522 73.6679 49.4322 73.7222C49.5721 73.7494 49.7719 73.7588 49.8915 73.7234C50.1511 73.7152 50.3509 73.7246 50.5507 73.7341C50.9299 73.6904 51.2697 73.727 51.589 73.7011C51.7888 73.7105 52.0076 73.5772 52.0865 73.4168C52.2251 73.2386 52.2034 72.9708 52.062 72.7383C51.9207 72.5059 51.7399 72.3536 51.5401 72.3442C51.1406 72.3253 50.7614 72.3689 50.3618 72.35C50.162 72.3406 49.9826 72.3937 49.7828 72.3842C49.6782 71.6609 49.5939 71.0002 49.5695 70.3217C50.0289 70.3229 50.4284 70.3418 50.8484 70.4233C51.0686 70.4953 51.2874 70.3619 51.426 70.1838C51.5646 70.0056 51.6027 69.7201 51.5212 69.4699C51.46 69.2823 51.2792 69.1301 51.0591 69.0581C50.5589 68.9318 50.0398 68.9483 49.5206 68.9648C49.4771 68.4291 49.4132 67.8309 49.3698 67.2952C50.0289 67.3059 50.6881 67.3165 51.3078 67.4074C51.5076 67.4169 51.7468 67.3461 51.8651 67.1054C52.0037 66.9273 51.9819 66.6594 51.9004 66.4093C51.899 66.204 51.7183 66.0517 51.5185 66.0423Z" fill="white"/>
<path id="Vector_37" d="M55.5084 68.4209C55.2479 68.2242 54.9683 68.17 54.6684 68.0533C54.5884 68.0085 54.5083 67.9638 54.4486 67.9815C54.2287 67.9096 54.0483 67.7576 54.0076 67.6327C53.9465 67.4453 54.0049 67.2225 54.1637 67.107C54.3619 66.9114 54.7012 66.9479 54.9414 67.0822C55.2617 67.2613 55.5996 67.0927 55.7368 66.7097C55.8345 66.4068 55.7125 66.032 55.3922 65.8529C54.6119 65.4676 53.5153 65.5184 52.9831 66.4978C52.7863 66.8986 52.6898 67.4065 52.8322 67.8438C52.9746 68.281 53.2365 68.6828 53.6368 68.9067C53.877 69.041 54.1172 69.1754 54.3968 69.2295C54.4768 69.2743 54.5365 69.2566 54.6166 69.3014C54.9165 69.418 55.177 69.6148 55.3779 69.8293C55.7998 70.3207 55.8839 70.9807 55.668 71.524C55.5498 71.7644 55.3516 71.9601 55.0531 72.0485C54.7545 72.1369 54.4749 72.0828 54.2144 71.886C54.0339 71.734 53.7747 71.7422 53.5955 71.7953C53.4367 71.9108 53.2982 72.0888 53.2398 72.3115C53.2412 72.5166 53.3225 72.7664 53.4827 72.856C53.9033 73.1423 54.4231 73.3308 54.8818 73.332C55.2808 73.3508 55.6988 73.227 55.9961 72.9335C56.6911 72.4538 57.0238 71.4649 56.9181 70.5374C56.8734 69.7973 56.3294 68.9312 55.5084 68.4209Z" fill="white"/>
<path id="Vector_38" d="M61.1327 70.5765C60.9677 69.6676 60.5249 68.9094 59.9249 68.4715C59.5647 68.1678 59.2058 68.0689 58.8469 67.97L58.7873 67.9877C58.6478 67.9606 58.488 67.8712 58.4461 67.5415C58.4245 67.2743 58.3825 66.9446 58.5017 66.9093C58.7401 66.8386 59.0001 67.0352 59.2804 67.2942C59.4606 67.4461 59.68 67.5179 59.898 67.3848C60.1364 67.3141 60.2543 67.0739 60.253 66.8691C60.2517 66.6642 60.1705 66.4146 59.9903 66.2628C59.6301 65.959 59.2699 65.6553 58.7918 65.5918C58.2338 65.4835 57.7773 65.6873 57.5212 66.1052C57.0281 66.7987 57.1362 68.135 57.7375 68.7778C58.0381 69.0992 58.397 69.1981 58.6963 69.3146C58.7763 69.3593 58.8358 69.3417 58.9157 69.3864C59.1351 69.4582 59.3153 69.6101 59.5157 69.8243C59.6565 70.0563 59.7973 70.2882 59.8989 70.6002C60.0207 70.9746 60.0626 71.3042 60.0043 71.5267C59.9461 71.7493 59.6684 71.9 59.4896 71.953C59.3108 72.006 59.1117 71.9966 59.0318 71.9519C59.0318 71.9519 59.0318 71.9519 59.0115 71.8895C58.9493 71.4974 58.6296 71.3185 58.3113 71.3444C58.0133 71.4327 57.7966 71.7707 57.8588 72.1627C57.9414 72.6172 58.1621 72.8938 58.502 73.1352C58.7417 73.2694 59.0207 73.3235 59.339 73.2975C59.6573 73.2716 60.0352 73.228 60.2533 73.095C60.7098 72.8912 60.9861 72.5356 61.123 72.153C61.2585 71.5655 61.195 70.9686 61.1327 70.5765Z" fill="white"/>
<g id="Group_28">
<path id="Vector_39" d="M63.8981 69.1544C64.7148 69.2019 65.5276 69.0361 66.3226 69.0184C67.0961 68.9355 67.9951 69.0304 68.7471 68.8824C69.1338 68.8409 69.395 68.6216 69.3874 68.1949C69.4014 67.8333 69.1681 67.3295 68.8206 67.2879C67.9001 67.1278 66.944 67.264 66.0487 67.3824C65.1535 67.5009 64.3192 67.6015 63.5317 68.046C63.0663 68.2534 63.4074 69.0832 63.8981 69.1544Z" fill="#FDF0E8"/>
</g>
<g id="Group_29">
<path id="Vector_40" d="M18.6063 71.4137C19.3418 71.6261 20.1339 71.6091 20.8869 71.6744C21.7006 71.7221 22.4751 71.8521 23.2888 71.8998C24.0418 71.9651 24.157 70.512 23.3825 70.3819C22.5864 70.1872 21.7121 70.1571 20.92 70.1741C20.1063 70.1264 19.2927 70.0787 18.5475 70.437C18.1231 70.5602 18.0958 71.278 18.6063 71.4137Z" fill="#FDF0E8"/>
</g>
</g>
<g id="Group_30">
<g id="Group_31">
<path id="Vector_41" d="M106.111 25.5709L91.4627 25.564C90.4239 25.5861 90.3472 27.9018 90.5418 30.834L91.0735 37.9084C91.2681 40.8406 91.9108 43.1569 92.7707 43.1865L107.419 43.1934C107.419 43.1934 106.54 39.9725 106.116 34.396C105.688 28.6121 106.111 25.5709 106.111 25.5709Z" fill="#E7EFF2"/>
<path id="Vector_42" d="M96.4604 26.8084L105.566 26.7935C106.094 26.7823 106.471 26.3172 106.442 25.8281C106.391 25.2742 105.915 24.8437 105.448 24.8373L94.429 24.6971C94.429 24.6971 38.5497 23.2293 19.5575 24.9079C16.0067 25.2286 15.5869 27.7675 15.8149 31.2558L16.4792 40.6598C16.7072 44.148 17.5298 46.8237 21.1707 46.9745C41.1243 47.7891 96.8329 47.7425 96.8329 47.7425L107.061 46.9039C107.589 46.8926 107.966 46.4275 107.937 45.9385C107.886 45.3846 107.41 44.954 106.943 44.9477L97.8376 44.9625C94.9108 44.9597 92.4469 42.5476 92.1877 39.566L91.6455 32.3303C91.4039 29.2015 93.5943 26.7879 96.4604 26.8084Z" fill="#66BDC6"/>
<g id="Group_32">
<path id="Vector_43" d="M88.8364 25.5792C87.5662 25.5404 87.7501 27.812 87.731 28.7066C87.734 30.6207 87.7944 32.518 87.912 34.3986C88.087 36.2623 88.2621 38.1261 88.5518 39.9563C88.7547 41.3331 88.7944 43.1681 90.1191 43.9432C90.8203 44.3536 91.3348 43.2456 90.6909 42.8184C90.2234 42.5449 90.1322 41.8876 90.0455 41.4343C89.8925 40.5899 89.7602 39.8079 89.6073 38.9636C89.3426 37.3996 89.1352 35.8189 89.0058 34.2837C88.8764 32.7486 88.8249 31.2591 88.7528 29.7071C88.7557 28.954 88.6807 28.1552 88.7615 27.4477C88.7688 26.8984 89.0305 26.5483 89.1937 26.0902C89.3039 25.8528 89.029 25.5912 88.8364 25.5792Z" fill="#FDF0E8"/>
</g>
<g id="Group_33">
<path id="Vector_44" d="M22.0595 27.903C21.6854 27.5333 21.2055 27.605 20.8655 27.9096C20.4314 28.3102 20.3093 28.8933 20.2653 29.522C20.1083 31.1418 20.0866 32.7904 20.143 34.4847C20.1788 36.1166 20.2926 37.7941 20.4638 39.4549C20.5938 40.9908 20.6664 42.5435 20.9111 44.0459C21.1721 45.4067 21.7891 46.3214 22.8287 47.181C23.1615 47.426 23.618 48.0453 24.0199 47.928C24.4792 47.7938 24.3303 47.153 24.0917 46.8121C23.7545 46.3632 23.2288 46.1061 22.8342 45.6739C22.2835 45.1505 22.114 44.4473 21.9445 43.7441C21.6791 42.1793 21.6065 40.6265 21.4766 39.0906C21.3009 37.2259 21.1826 35.3444 21.1998 33.4917C21.198 32.5342 21.1963 31.5767 21.252 30.6024C21.3004 30.1777 21.2709 29.7073 21.3768 29.2658C21.4826 28.8243 21.7697 28.7404 22.0523 28.4526C22.2039 28.3399 22.2568 28.1191 22.0595 27.903Z" fill="#FDF0E8"/>
</g>
<path id="Vector_45" d="M38.3308 43.1224L35.0152 43.1137C33.8437 43.1069 32.7925 42.0971 32.7101 40.8761L32.0993 32.6156C32.0169 31.3946 32.9111 30.3751 34.0826 30.3819L37.3982 30.3906C38.5697 30.3973 39.621 31.4071 39.7033 32.6281L40.3141 40.8886C40.3965 42.1096 39.5023 43.1291 38.3308 43.1224Z" fill="white"/>
<g id="Group_34">
<path id="Vector_46" d="M74.4845 31.7017C74.2449 33.0713 74.4318 34.5898 74.5775 35.9836C74.7438 37.4397 74.9674 38.8791 75.3057 40.2849C75.4999 41.254 76.8762 40.8515 76.6247 39.8991C76.2864 38.4933 76.0833 37.1163 75.8803 35.7393C75.6978 34.4247 75.6874 33.0598 75.427 31.6996C75.3564 31.1047 74.5697 31.198 74.4845 31.7017Z" fill="#FDF0E8"/>
</g>
<g id="Group_35">
<path id="Vector_47" d="M78.472 31.8957C78.0093 32.784 78.1356 34.1172 78.2159 35.1213C78.2801 36.267 78.4801 37.4418 78.7376 38.5997C78.9537 39.6327 80.3921 39.2136 80.176 38.1806C79.9599 37.1476 79.7231 36.0521 79.6221 34.9856C79.5049 34.0607 79.5558 32.8814 79.1302 31.9779C78.9692 31.6823 78.6194 31.5787 78.472 31.8957Z" fill="#FDF0E8"/>
</g>
<g id="Group_36">
<path id="Vector_48" d="M82.1144 33.3517C81.4258 33.9634 81.7345 35.4577 82.2404 36.2067C82.4828 36.5499 82.916 36.7003 83.2441 36.5368C83.5722 36.3733 83.8163 35.9587 83.611 35.5361C83.4268 35.1762 83.2426 34.8162 83.1375 34.5023C83.0325 34.1884 82.9646 33.795 82.8013 33.4978C82.6963 33.1839 82.3051 33.159 82.1144 33.3517Z" fill="#FDF0E8"/>
</g>
</g>
</g>
</g>
</svg>
